/* XPM */
static char *_bc5f71ea9b54d8ac8a75d0eef23162anR71kNIhNxvWELlX[] = {
/* columns rows colors chars-per-pixel */
"64 64 241 2 ",
"   c #000004",
".  c #00000B",
"X  c #000114",
"o  c #010A14",
"O  c #0D0D17",
"+  c #010118",
"@  c #070918",
"#  c #0C0E18",
"$  c #120B16",
"%  c #160919",
"&  c #120E19",
"*  c #17111A",
"=  c #19121A",
"-  c #1F1A19",
";  c #310F1F",
":  c #24151E",
">  c #2A171E",
",  c #231B1C",
"<  c #2B181F",
"1  c #37161D",
"2  c #321A1E",
"3  c #2B241A",
"4  c #372518",
"5  c #352E1B",
"6  c #3D3418",
"7  c #180020",
"8  c #1F1827",
"9  c #2A1922",
"0  c #291824",
"q  c #341D24",
"w  c #3B1E23",
"e  c #3B192A",
"r  c #321031",
"t  c #38202B",
"y  c #3D222B",
"u  c #3B2535",
"i  c #342538",
"p  c #3C2638",
"a  c #501F1F",
"s  c #4A2D1E",
"d  c #463919",
"f  c #4A0024",
"g  c #4D0034",
"h  c #570333",
"j  c #461B37",
"k  c #581936",
"l  c #6C002E",
"z  c #74002C",
"x  c #67182F",
"c  c #640432",
"v  c #760D30",
"b  c #661633",
"n  c #611D34",
"m  c #6B1A33",
"M  c #741931",
"N  c #422125",
"B  c #43242D",
"V  c #4B262C",
"C  c #4D282C",
"Z  c #5F2C25",
"A  c #52272A",
"S  c #54292C",
"D  c #5B2C2E",
"F  c #482634",
"G  c #4D2A34",
"H  c #442639",
"J  c #4A2338",
"K  c #452938",
"L  c #4C2B39",
"P  c #542237",
"I  c #5C2237",
"U  c #542D34",
"Y  c #5B2C36",
"T  c #542239",
"R  c #5A2438",
"E  c #542D39",
"W  c #5B2C38",
"Q  c #5A3237",
"!  c #5D3139",
"~  c #7B2A2E",
"^  c #6A3826",
"/  c #763B2B",
"(  c #642335",
")  c #6D2736",
"_  c #622C35",
"`  c #6B2C34",
"'  c #622E39",
"]  c #722C32",
"[  c #752935",
"{  c #643235",
"}  c #6B3436",
"|  c #6D3B36",
" . c #633339",
".. c #6C3539",
"X. c #6A3839",
"o. c #733336",
"O. c #7A3433",
"+. c #743C35",
"@. c #7B3C35",
"#. c #723639",
"$. c #753939",
"%. c #793B3A",
"&. c #4F451F",
"*. c #57461D",
"=. c #5D501C",
"-. c #6A4B1F",
";. c #6C511E",
":. c #574921",
">. c #5B5123",
",. c #7E4D25",
"<. c #645523",
"1. c #685523",
"2. c #6E5E25",
"3. c #7C5726",
"4. c #744136",
"5. c #7A4234",
"6. c #7A4A34",
"7. c #7A5236",
"8. c #736226",
"9. c #776626",
"0. c #7E6B29",
"q. c #873B2F",
"w. c #88492D",
"e. c #924D2F",
"r. c #845627",
"t. c #99582E",
"y. c #834334",
"u. c #8B4630",
"i. c #864B33",
"p. c #8B4D32",
"a. c #924E30",
"s. c #8D5133",
"d. c #885635",
"f. c #935431",
"g. c #955C33",
"h. c #9A5E32",
"j. c #8C6F29",
"k. c #8E7D2E",
"l. c #8B6437",
"z. c #9D6332",
"x. c #986835",
"c. c #987B32",
"v. c #A4632F",
"b. c #AA692C",
"n. c #AC7926",
"m. c #B4762E",
"M. c #BE7C2E",
"N. c #A26532",
"B. c #A36C34",
"V. c #AA6C31",
"C. c #A47236",
"Z. c #AB7737",
"A. c #AC7534",
"S. c #B37531",
"D. c #B47D34",
"F. c #BB7C32",
"G. c #C07E2F",
"H. c #9C8732",
"J. c #BB8C2B",
"K. c #A38B33",
"L. c #AB8538",
"P. c #BC8233",
"I. c #B88537",
"U. c #B48539",
"Y. c #BD8C39",
"T. c #AE9738",
"R. c #B89A37",
"E. c #BD913C",
"W. c #BFA037",
"Q. c #BDA33B",
"!. c #C8862E",
"~. c #D38F2F",
"^. c #D4912F",
"/. c #DC972E",
"(. c #C28231",
"). c #C58933",
"_. c #C58E36",
"`. c #C79737",
"'. c #CC9334",
"]. c #C59339",
"[. c #CA9D3D",
"{. c #D49430",
"}. c #D99630",
"|. c #D69A32",
" X c #DB9C32",
".X c #E39C2E",
"XX c #E09C30",
"oX c #C8A73D",
"OX c #C7AC3E",
"+X c #D3A33C",
"@X c #D9A93B",
"#X c #CEB13F",
"$X c #D8B63F",
"%X c #EEA92F",
"&X c #E2A533",
"*X c #E5AA34",
"=X c #EAAC34",
"-X c #F3AF31",
";X c #EEB235",
":X c #EAB83A",
">X c #F2B435",
",X c #F5B935",
"<X c #FCBC34",
"1X c #F0B738",
"2X c #F1BB3B",
"3X c #FABE39",
"4X c #EBC03C",
"5X c #FEC236",
"6X c #FAC33A",
"7X c #F8C639",
"8X c #FFCB3B",
"9X c #FFD03F",
"0X c #BE9F42",
"qX c #CFA440",
"wX c #D6AA41",
"eX c #D7AB41",
"rX c #CFB340",
"tX c #D5B443",
"yX c #DCB342",
"uX c #DABC43",
"iX c #E4BC45",
"pX c #EABD43",
"aX c #DEC245",
"sX c #E5C244",
"dX c #EBC446",
"fX c #EDCC46",
"gX c #ECC648",
"hX c #E9C848",
"jX c #F4C642",
"kX c #F3CB45",
"lX c #FCCD41",
"zX c #F1CE48",
"xX c #EDD44B",
"cX c #FED444",
"vX c #FFDA46",
"bX c #F4D249",
"nX c #FAD349",
"mX c #F6D94A",
"MX c #FFDB4A",
"NX c #FFE24C",
"BX c #FFE84E",
/* pixels */
"* * * * * * * * = = , X X . .   . . X + + + X o o o @ & * = = * * * * * * * * * * * * * * * * = * * * * * * = * * * = * * * * * ",
"* * * * * * = = * # X 3 &.=.1.2.1.;.;.*.s 1 > = : = = * & $ * & & * * * * = * * * * = * = * * * * * * = * * * * * * * * * * * * ",
"* * * * * * = * & X . d k.T.Q.Q.W.R.J.n.r.Z A y y y q - o . o o o o O & * = = = * = * * * * * * * * * * * * * * * * * * * * = * ",
"* * * * = * = & + + X 9.Q.aXhXhXdX:X*X'.v./ ^ G E G B e > % % * = = & & * * & & & * * * * * = * * = * * * * = * = * * * * * * * ",
"* * * = : * # + + 3 >.K.$XbXmXMXcXjX;X~.v.@.|  . . .Q C w 2 w w N 2 > & O o @ @ @ O * * = = = = * * * = * * * * * * * = * * * * ",
"* * * * = & + + + 2.K.$XjXcXvXvXlX2XXXF.g.$.#.#...X. . .D D D D Z A y : O o # # O O * * & * & & * * * = * * * * * * * * = * * * ",
"= * = * * + X + 3 k.uXnXlX8X8X5X>X|.V.y.|  ...$.$.$.#.#.#.+.} $.$.} C < & o # * * * * * & 7 & & & * * = * * * * = * * * * * * = ",
"* * * & X * 3 1.c.oXzXMX8X<X<X%X^.A.@.g T  ...%.%.%.%.%.%.%.%.%.5.$.Z C N y N B y w 8 o + + X X X + * = = * * = * * * * = * * * ",
"* * * @ X 5 <.K.tXjX8X8X8X5X;X^.S.p...T  .#.#.$.$.%.$.$.O.$.$.%.%.$...} ..' } } { A , X X .   . X X & , = * * * = * * * * * * * ",
"* = = @ . 6 9.Q.bXMX8X5X5X;X XS.p.( W  .#.%.%.$.$.$.$.$.$.$.$.$.$.$.$.$.#.%.$.#.#._ ; 2 &.<.2.1.:.d 3 # * & & % * * * * * * * * ",
"* = , O . 4 <.T.xXBX9X<X>X|.F.g.$.I  ...#.$.$.$.$.$.$.$.$.$.$.$.$.$.$.$.%.#.%.%.#.n f ^ c.R.Q.Q.K.0.d . X o o o @ & = * * * * * ",
"* = = = . &.0.oXxXNX8X>X}.F.g.+.' (  .#.$.$.$.$.$.$.$.$.$.$.$.$.$.$.%.$.%.#.#.#.o.O.~ b.oXsXfXhX#XK.*.. X * = = * * * * * * * * ",
"= $ X : 5 8.H.#XkXnX3X&XP.f.@._ '  .#.%.O.$.$.$.$.$.$.$.$.$.$.$.$.$.$.$.$.$...[ o.p.B.].iXnXNXmXsXR.;.X % q e w 9 * # # * * * * ",
"= @ X 6 8.K.#XsXlX6X&X(.h.} ( k  .+.%.%.$.$.$.$.$.$.$.$.$.$.$.$.$.$.$.$.#.#.o.@.y.Z.[.pXlXnXMXvX4X`.r.7 e F U A N , & o * * * * ",
"* X . *.H.rXfXcX6X*X(.f.@.'  ...#.$.$.$.$.$.$.$.$.$.$.$.$.$.$.$.$.$.$.$.#.#.o.y.g.Y.iXnXlX8X8X<X;X'.z.b E W ..X.S w * o & * * * ",
"= X   =.T.aXMXvX5X.Xb.[ _ E  ...$.%.%.$.$.$.$.$.$.$.$.$.$.$.$.%.$.$.$.#.) o.y.B.Y.iXnXcX8X3X<X%X}.F.h.o.....%.O.{ V w = & O * = ",
", X   d H.uXNXNX8X%Xm.q.| Y  ...#.%.%.$.$.$.$.$.$.$.$.$.$.$.$.$.%.#.$.) c [ g.E.iXlX8X8X8X5X=X^.S.s.$. ...#.$.$.$.} A 2 $ . & = ",
"+ 3 6 0.R.$XxX9X3X.Xm.u.| { } ..$.$.$.$.$.$.$.$.$.%.$.$.$.$.#.$.#.#.....[ h.U.yXnXcX8X5X5X>X XS.p.( W  .#.$.$.$.%.+.} V 2 % * * ",
"X &.k.W.$XjX7X:X+XM.h.5.| ....#.$.%.#.$.$.$.$.$.$.$.$.$.$.$.$.$.$.) c [ z.Y.eXjXlXcX8X5X>X XP.g.$.k ' ..$.%.$.$.%.$..._ A w : o ",
". <.T.uXkXlX3X&XF.f.6. .....#.#.$.$.$.$.$.$.$.$.$.$.$.$.$.$.$.$.$.#.M s.Y.tXjXlX8X6X5X>X|.F.g.$.' I ..#.$.$.$.$.$.%.%.#._ V > o ",
". <.T.iXlX8X,X}.v.[ { ! ..$.$.$.O.$.$.$.$.$.$.$.$.$.$.$.%.#.%.#.#.y.d.U.eXpXnXcX8X<X<X&XP.f.5.W ' ..#.%.$.$.$.$.$.$.%.%.$.D 2 o ",
"X *.L.+X2X6X-X^.t.h P Y ..$.$.$.$.$.$.$.$.$.$.$.#.%.$.$.#.o.%.%.[ h.0XeXdXlXcX8X<X-X&X(.z.} ( k  ...$.%.$.$.$.$.$.$.%.%.$.D q . ",
"X 1 / C.|.;X>X Xv.m W ! ..#.$.%.$.$.$.$.$.$.$.$.$.$.$.$.#.$.#.%.q.B.qXpXlXlX8X<X<X*XG.f.5.' ' ..#.$.$.$.$.$.$.$.$.$.%.$.#.D 2 o ",
"X s 7.Z.'. X X).g._  . . ...#.#.$.$.$.$.$.$.$.$.$.$.$.$.$.$.%.%.z V.iXnXvX8X<X-X=X'.h.b ( W  .#.%.%.%.$.$.$.$.O.$.$.$...{ V > o ",
". <.R.yX@X'.V.y.Q H E  . .X...#.#.#.#.#.#.%.#.$.$.$.$.$.$.#.$.) l v.eXnXnXcX,X.X(.z.6.' } ..#.$.$.$.$.$.$.$.%.%.%.%.#.! L t 8 o ",
". 9.tXfXpX[.z.b F p E ! ! W ' ..o.o.o.#.#.#.#.%.$.$.$.$.$.%.$.5.u.D.yXnXnXlX,X^.v.] { ! ..$.$.$.$.$.%.$.$.$.#...$.#. .E u 8 * O ",
". 8.#XzXkXpX_.h.5.G G K L E ( m v v M [ o.#.#.#.$.#.#.%.#.%.y.x.0XeXpXlXlX8X,X}.v.M W E ..#.$.$.$.%.%.%.%.$.X.! ! ! ! E K t 8 o ",
". 8.#XbXcX7X&XM.f.( L p H ! 4.p.f.f.a.y.%.....#.#.$.#.#.#.q.p.D.eXgXjX6X8X6X>X{.v.m W ! ..#.$.%.$.$.$.$.%...! K L K L L U B , o ",
". 2.OXzXcXcX>X^.v.` U p j | l.Z.P.I.U.x.y.m [ [ #.#.#.#.#.q.a.Y.gXMX8X8X<X>X&X).g.) {  ...$.O.%.$.#.| ..X.X.L K p p L E E V 9 o ",
". 2.OXfXcXcX3X/.b.] E F k d.Z.qXeXiXeXY.h.[ q.y.q.%.#.#.#.y.a.].zXMXcX5X>X.X).B.i.' ....#.$.%.$.#. .! E ! E L K K K E Q Y C > o ",
"  2.OXfXcXcX>X^.v.[ Q R l h.[.pXmXmXzXyXZ.q.e.a.i.%.#...#.y.a._.gXMXcX6X&X!.h.O. .! ..$.$.$.%.$...! K i p K E E Q E ! Q Y B , o ",
". 8.OXzXmX8X>X^.v.[ { _ l N.+XzXNXBXMXjX+XI.]._.C.d.%.) ) %.a._.fXMXcX6X&XS.u.g T ! $.$.#.X... .! L p i i K E !  . . .! Y V : o ",
". 2.OXzXvXlX>X^.N.] ' ' l N.+XkXmXvXcXlXnXzXzXiX[.B.5.h k | f.`.zXNXvX8X=X!.e.x W W %.%. .L L L K L E E E E Q ! !  .! ! Q B , o ",
". 2.OXbXcXlX>X~.N.] W W l h.qXdXnXlX3XpXkXMXMXnX@XZ.6.g r ! w.U.iXnXkX2X+Xm.a.( W ! ....E H i i K E Y  .! ! !  .! !  .! Q F 9 o ",
". 2.OXfXmXlX>X{.v.[  .R l N.qXgXkXpXoXY.0XtXlXkX@XF.p.h j G { x.0XqX|.'.D.x.| j H L ! Y E K K K L E ! ! ! ! ! Q ! ! ! ! Y B , o ",
". 8.OXzXcX9X>X~.v.[ ' W l N.eXdXkXyXL.d.7.0X2X3X XF.a.k J H E 7.x.F.P.S.z.6.U i p K K K L E E Q Q ! !  .!  .! ! !  . .! E V : o ",
". 8.OXfXcXcX;X~.v.] Q ( l N.eXkXkXyXU.4.i l.@X<X XS.p.( T L E 7.C.D.P.m.z.6.Q i p p p K E Q ! ! ! ! ! ! ! !  . .X. . .! Y B , o ",
". 2.OXzXcXlX>X{.v.` { Y l N.qXgXzXpX`.x.j 7.&X>X XS.p.( R Y X.l.E.+X+X`.D.g.| j H K K L E !  . . .! ! ! !  .X.......X.! Q B 9 o ",
". 2.OXbXcXcX>X^.v.] ! I l N.qXgXmX8X:X'.l.C.=X,X XS.p.n I +.p.I.iXbX8X:X Xm.s.I W E E Q !  . .! ! ! ! ! !  .X.#.%.$.#.X.E B : o ",
". 2.OXfXvXlX>X~.v.`  ._ l z.qXgXmXvX8X>X].].1X,X XS.p.k I +.e._.zXNXvX8X%X!.t.( W Q !  .! ! ! ! ! X. .X.X...#.%.%.%.#.{ Y B : o ",
". 8.OXzXmXcX;X~.v.[ Q Y z N.eXkXvXvX8X<X=X;X5X,X/.V.p.( I +.e.Y.fXMXcX6X*XG.e.( _ E '  .! Q Q !  .....#...#.$.$.%.$.$.X.E B 0 o ",
". 2.OXzXvX8X>X^.v.[ { R l z.qXiXzXlX,X<X<X5X8X,X}.S.p.k I | e.Y.dXMXcX6X&XG.t.( W E ! !  . .!  . ...$.%.%.$.$.$.$.$.$. .E B : o ",
". 8.OXzXcXcX>X^.N.]  .W k 7.U.oX+X@X&X=X5X8X8X5X@Xm.p.n I | e.Y.dXnXcX6X&XG.e.( W E ! ! X. ...X...#.$.%.$.$.$.$.%.$.+. .E B : o ",
"  2.OXzXcXlX>X^.v.]  .E j | d.C.A.P.G.|.,X5X7X,X{.S.i.( I | e.Y.dXMXcX6X&XG.t.( W E !  .X...#.#.#.+.$.$.$.$.+.$.$.$...X.Y B : o ",
". 2.OXzXmX8X>X{.v.] } E L ! 4.i.y.f.g.F.*X,X,X%X_.V.y.k I @.u._.dXMXcX6X&XM.t.( W E  . .#.$.$.$.%.+.$.$.$.$.$.#.%.$.+. .U B , o ",
". 2.OXfXcXcX>X~.v.] { W ! W I c h c o.z.).|.|.'.D.d.+.'  .%.e.Y.dXMXcX6X&XM.e.( W E  .#.#.$.%.%.%.#.$.$.$.$.$.%.$.%.#. .Y B : o ",
". 2.oXzXcXlX>X{.v.]  .! ......W R R { 6.h.b.b.v.p.+. .' [ y.e.Y.dXnXcX6X&XG.f.( W W ..$.$.$.$.$.$.$.$.$.$.$.$.$.$.+...X.E B : o ",
". 8.#XbXvXcX>X{.N.] { ! #.$.#. .! U ! { O.~ O./  .' ' ..o.u.a.Y.dXMXcX6X&XG.f.( R  .#.%.$.$.$.$.$.$.$.$.$.$.$.$.%.%.#.{ Y B : o ",
"  8.tXmXBX9X7X/.b.o. .Q } $.$.#........... .X.{ X.X...o.#.q.a.Y.dXMXcX6X&XG.f.( W ! ..%.$.$.$.$.$.$.$.$.$.$.$.$.%.$...X.E B 0 o ",
". 2.oXsX7X7X:X!.v.`  .! ..#.$.$.%.%.$.#. .! ! ! X.#.#.#.#.y.a.Y.dXcXcX6X&XG.f.m W ! ..%.$.$.$.$.$.$.$.$.$.$.$.$.%.$...X.! B 9 o ",
"X :.H.T.W.J.J.b.,._ _  .X...$.%.%.%.%.+..... ...#.#.#.#.o.q.e.Y.dXMXcX6X&XG.f.) W  ...%.$.$.$.$.$.$.$.$.$.$.$.%.%.%.+.X.! B : o ",
"X 5 <.0.j.j.3.-.s N U  .!  .X.#.$.$.+.#.......#.$.$.#.$.#.q.e.Y.gXnXcX7X&XG.f.( W W #.%.$.$.$.$.$.$.$.$.$.$.$.$.$.$.#.X.E B : o ",
"& , 6 d d d s 4 , 9 V U E E Q { | #.#.#.#.#.#.#.$.$.$.#.o.y.a.Y.gXnXcX6X&XG.f.( W ! #.$.$.$.$.$.$.$.$.$.$.$.#.#.$.....W U y - o ",
", & X X . X + + X 8 q B y y B A S  .X.....X.X...#.#.#.#.o.q.a.Y.dXMXcX6X&XG.f.( W ' ..%.$.$.$.$.$.$.$.$.$.$...X..... .U N 9 = O ",
"= * @ + + + @ @ # & : : = : : > y C Q  . .! !  .X...#.$.#.y.a.Y.dXMXcX6X&XG.f.( W ! #.%.$.$.$.$.$.$.$.%.$.#. . . .! U N 9 # & = ",
"* * * * = = * * = * o o o o . o = t F U L L B G { ....#.o.q.a.Y.dXcXcX6X&XG.f.( W ! ..%.%.$.$.$.$.#.#...#.X.Q G U K N 9 O o & = ",
"* * = * * * * = * * * & * O # & = < t t q 2 0 y U W  . . .y.f._.dXMXcX6X@XG.f.( W  ...$.$.%.$.$.$...X.X.X.! V t q 9 9 - * O * * ",
"* * * * = * * * * * * * * * * * * * * * = O o - B U E R I +.u.Y.gXMXcX7X&XG.f.x W W #.$.$.$.$.$.#. .! E ! G w * * * * * * * * * ",
"= * * * * * * * * * = * * * * * * & & & * O o - q y B B j A ^ U.gXNXMX8X*X!.f.n W ! #.$.#...$... .Q B y B y 9 * & # # * * * * * ",
"* * * = * * * * * * * * * * * * * & & O # # # # = 9 9 ; % ; 1 c.sXMXcX7X&XG.f.( Y ! #.$...X. . .Y V q : 9 9 = O # # * * * * * * ",
"* * * * * * * = * * * * * * * * * * * = $ * * * * * * O + % X 0.#XdX4X=X^.S.f.` W W ....{ E E U V w : o * * & * * * = * * * * * ",
"* = * * = * * * * = * * * * * * * * * * * = * * O @ o o X X X >.H.R.R.J.n.b.f.@. .E .. .C B B e t , O o o o O * * * * * * * * * ",
"* = = * * * * * * = = * * * * * * * * * * * * * * * * & & & + 5 *.1.;.;.r.r.s.i.X.E ! Q B 9 : = : * & $ * * * * * * * * * * * * ",
"* * * * * * = * * * * * * = * * * * = * * * * * * * * * - = & + .   . X a / s.p. .L ! U q O o . o & * = = * * * * * * * * = * * "
};
