/* XPM */
static char *d3210124999446f0a2c5dd21bf60eb76k6Av4qJW5RbcDIt3[] = {
/* columns rows colors chars-per-pixel */
"32 32 158 2 ",
"   c #000006",
".  c #00000C",
"X  c #000114",
"o  c #020B16",
"O  c #0B0E17",
"+  c #010218",
"@  c #030D19",
"#  c #0D0D19",
"$  c #110F19",
"%  c #17111A",
"&  c #19131A",
"*  c #1F181A",
"=  c #31001E",
"-  c #23151D",
";  c #211A1B",
":  c #2C181E",
">  c #2F301C",
",  c #370D25",
"<  c #321C25",
"1  c #381F28",
"2  c #280036",
"3  c #3C222A",
"4  c #2D2032",
"5  c #2C2338",
"6  c #362438",
"7  c #3D2738",
"8  c #6A1425",
"9  c #6E0030",
"0  c #741131",
"q  c #711F30",
"w  c #472326",
"e  c #4B2528",
"r  c #592D26",
"t  c #50272A",
"y  c #52292C",
"u  c #462636",
"i  c #4C2932",
"p  c #422639",
"a  c #452938",
"s  c #4D2B39",
"d  c #512736",
"f  c #5E2437",
"g  c #532C34",
"h  c #5C2D34",
"j  c #552D3A",
"k  c #5B2E3A",
"l  c #5A3037",
"z  c #5D3139",
"x  c #7B2E2F",
"c  c #703C25",
"v  c #7B372F",
"b  c #632132",
"n  c #6E2532",
"m  c #632E37",
"M  c #6E2D33",
"N  c #612F3A",
"B  c #732D33",
"V  c #643335",
"C  c #6C3436",
"Z  c #6D3833",
"A  c #633339",
"S  c #6C363A",
"D  c #6E383B",
"F  c #723535",
"G  c #7C3233",
"H  c #773836",
"J  c #7B3934",
"K  c #723639",
"L  c #753939",
"P  c #793B3A",
"I  c #7F452A",
"U  c #6D5D27",
"Y  c #785427",
"T  c #6A4236",
"R  c #794436",
"E  c #842E2D",
"W  c #83342E",
"Q  c #843B2F",
"!  c #8A452F",
"~  c #8D492F",
"^  c #90462D",
"/  c #94502E",
"(  c #9F5D2E",
")  c #854331",
"_  c #894430",
"`  c #864A32",
"'  c #8B4C33",
"]  c #8B5136",
"[  c #935533",
"{  c #955A33",
"}  c #836E2B",
"|  c #916723",
" . c #8E7A2E",
".. c #927D2F",
"X. c #956033",
"o. c #996C34",
"O. c #9E7537",
"+. c #B97D2D",
"@. c #A56931",
"#. c #A96C31",
"$. c #AD7332",
"%. c #A97B36",
"&. c #AE7F38",
"*. c #B87B31",
"=. c #9D8732",
"-. c #A9862E",
";. c #AC8039",
":. c #B98536",
">. c #B28138",
",. c #B98A3A",
"<. c #A89135",
"1. c #BDA43B",
"2. c #CF972C",
"3. c #C38632",
"4. c #C78830",
"5. c #CA8C31",
"6. c #C08E3A",
"7. c #C99337",
"8. c #C6973D",
"9. c #CE9F3B",
"0. c #D49430",
"q. c #D89631",
"w. c #DB9B32",
"e. c #C5A63D",
"r. c #C7AC3E",
"t. c #CCAC3D",
"y. c #D9A934",
"u. c #D8A93F",
"i. c #DCB33C",
"p. c #E6A532",
"a. c #E9A631",
"s. c #EBAB33",
"d. c #F5B333",
"f. c #F7B936",
"g. c #FDBC33",
"h. c #F3B93B",
"j. c #FFC436",
"k. c #FFC937",
"l. c #FFC43A",
"z. c #FFCC3D",
"x. c #DCB343",
"c. c #D7BB44",
"v. c #DDBF44",
"b. c #E0B744",
"n. c #E3BB44",
"m. c #E2C345",
"M. c #EEC445",
"N. c #EAC548",
"B. c #F3C745",
"V. c #F9C641",
"C. c #F7CB42",
"Z. c #FDCC43",
"A. c #F3CC49",
"S. c #FFD544",
"D. c #FFD945",
"F. c #FBD54B",
"G. c #FFDB4B",
"H. c #FFE44E",
/* pixels */
"% % % % % % + X + + + o O $ % % % % % % & $ & & & $ % % % % % % ",
"% % % % + . e.c.i.2.I y i < X o o $ % % & & & $ & & % % % % % % ",
"% % & + * =.C.G.Z.w.' D A l w e e - o o # $ % % % % % % % % & % ",
"% % # $ } G.k.g.q.B k K P P P P P e ; : : $ # # # & % % % % % % ",
"% % X ..F.l.j.q.` k K L L P L L H K K K V + + X + ; % % % % % % ",
"% ;    .H.j.w.{ f S P L L L L L L L P L F 8 e.v.<.X o + $ % % % ",
"% + U t.S.p.[ f A P H L L L L L L L L F ' 8.Z.H.i.= 1 e : @ % % ",
"% . r.G.d./ k A P L L L L L L L L L K ) :.G.V.g.w.) N P t $ $ % ",
"&   1.G.f.( V A P L L L L L L L L S 0 :.F.l.j.q.` h L L L y X % ",
"+ 1.C.h.*.R C L L L L L L L L L K 9 ,.B.z.j.w.{ b S L L P S y O ",
"+ x.z.a.x j K L L L L L L L L P P >.M.S.g.p.{ f A P P P L P C o ",
"+ I w.p.) z S L H L L L L P K P ^ A.S.g.d.~ k S P P K K L P V o ",
"+ v.u.v 6 k A C L K L L L L K K E N.S.a.{ V L L L L L P P A 4 % ",
"X N.z.3.Z p s B E G K K L L P { x.V.z.s.Q l D L P P P j j j u O ",
"X v.S.s.! a m &.9.,.G G K K J #.G.z.d.5.P V L L Z A A a 7 j g O ",
"X m.S.a._ z W n.H.A.#.$.] S H @.F.z.2.n j L L L z 5 6 l z A i O ",
"+ m.S.p._ z W b.G.V.F.G.6.b d #.G.S.0.J k L s 6 s l l z A A s $ ",
"X m.S.p.) z W n.M.%.<.Z.5.B p T >.3.{ u a j s s j A z z z z i O ",
"X m.S.p._ z W n.B.o.2 d.4.H j T :.3.X.u 7 7 l A z z z A C A g O ",
"+ m.S.p.) z W b.D.d.O.f.4.F m #.G.S.q.Q k z z z A z A P P D i O ",
"X m.S.p.) z W n.G.g.f.j.3.C m @.F.z.0.J d z z z A L L L P S i O ",
"X m.S.p._ z h ;.7.q.k.k.4.G m @.F.z.0.v j z S S L L L L P S i O ",
"X m.S.p._ z j M q { p.s.$.V C @.F.z.7.J k C L L L L L L P S i O ",
"X m.S.p._ l K A j A ~ ~ S N J @.F.z.0.J k K L L L L L L P D g O ",
"X N.S.a.' z K L L C A z Z K P @.F.z.0.H l L L L L L P L P S i O ",
"+  .-.| r A A L P L S S L L G @.F.k.0.J l L L L L L L P L D g O ",
"* . X + @ i u y V L D L L K J @.F.z.0.H k L L L L L L Z L A 3 % ",
"% % % % % O O o 1 l j j S K P @.F.z.0.P k L K K L L L j j 3 o % ",
"% % % % % % % $ & - - % g z K #.F.z.7.v k K P P S A z < ; & % % ",
"% % % % % % % % % O $ O < 1 , Y G.S.0.G k P S S h < 1 % O % % % ",
"% % % % % % % % % % % % O o X > t.y.+.) l S y i 3 X @ % % % % % ",
"% % % % % % % % % % % % % % & # X X c ] j z ; o $ % % % % % % % "
};
