/* XPM */
static char *_13968fbff9842b2b8700f135e386f204kyj05JQnkwaFGzB[] = {
/* columns rows colors chars-per-pixel */
"64 64 256 2 ",
"   c #000101",
".  c #010309",
"X  c #1B0304",
"o  c #040F0C",
"O  c #280203",
"+  c #340201",
"@  c #3C0201",
"#  c #380B03",
"$  c #32180C",
"%  c #372A12",
"&  c #052D33",
"*  c #1C2327",
"=  c #430101",
"-  c #4C0101",
";  c #490A05",
":  c #530101",
">  c #5C0101",
",  c #590A04",
"<  c #471504",
"1  c #591605",
"2  c #581512",
"3  c #640000",
"4  c #6C0101",
"5  c #660C03",
"6  c #720100",
"7  c #790501",
"8  c #641301",
"9  c #6C1402",
"0  c #6B1B03",
"q  c #661A07",
"w  c #721C02",
"e  c #7C1B01",
"r  c #751604",
"t  c #661816",
"y  c #710A18",
"u  c #572914",
"i  c #502D10",
"p  c #6A2507",
"a  c #7C2203",
"s  c #762307",
"d  c #673605",
"f  c #703015",
"g  c #4D0834",
"h  c #76122C",
"j  c #513729",
"k  c #72312F",
"l  c #724515",
"z  c #54462F",
"x  c #694928",
"c  c #754D32",
"v  c #5C421E",
"b  c #171863",
"n  c #6E284D",
"m  c #54326A",
"M  c #722E6C",
"N  c #600C59",
"B  c #325353",
"V  c #4F524D",
"C  c #765749",
"Z  c #6C544C",
"A  c #776559",
"S  c #726B59",
"D  c #684B73",
"F  c #796C63",
"G  c #7A766C",
"H  c #555964",
"J  c #3E4535",
"K  c #840000",
"L  c #8A0201",
"P  c #9C0101",
"I  c #950401",
"U  c #851A02",
"Y  c #961901",
"T  c #8C161C",
"R  c #AC0101",
"E  c #A30200",
"W  c #AA1A01",
"Q  c #B11400",
"!  c #832403",
"~  c #8C2503",
"^  c #882808",
"/  c #942502",
"(  c #9B2501",
")  c #952B04",
"_  c #9B2B02",
"`  c #972A0B",
"'  c #9C3307",
"]  c #892715",
"[  c #962816",
"{  c #973615",
"}  c #8A350C",
"|  c #A32C02",
" . c #AB2C02",
".. c #A72706",
"X. c #B32C01",
"o. c #B32603",
"O. c #AC3203",
"+. c #AC330A",
"@. c #A53405",
"#. c #B33303",
"$. c #B63606",
"%. c #A42A18",
"&. c #A63717",
"*. c #B43717",
"=. c #B32A19",
"-. c #870A32",
";. c #90322B",
":. c #AA382A",
">. c #B53B29",
",. c #AB353A",
"<. c #AD2E2E",
"1. c #A91231",
"2. c #914A0F",
"3. c #B24C0C",
"4. c #AE670C",
"5. c #984724",
"6. c #865935",
"7. c #90512F",
"8. c #AE502D",
"9. c #986537",
"0. c #8F6333",
"q. c #A96837",
"w. c #B66937",
"e. c #B7743C",
"r. c #B06D2B",
"t. c #CE5408",
"y. c #D96918",
"u. c #C55429",
"i. c #D77735",
"p. c #CE6F2E",
"a. c #E27C3A",
"s. c #8F094F",
"d. c #8E2F4F",
"f. c #AB384A",
"g. c #A93858",
"h. c #B13A58",
"j. c #AD2A4E",
"k. c #903570",
"l. c #A93A6F",
"z. c #9F0A5F",
"x. c #8E504D",
"c. c #B75947",
"v. c #AB524E",
"b. c #93684F",
"n. c #A77445",
"m. c #B77A46",
"M. c #B57A58",
"N. c #AD6D4F",
"B. c #8D4765",
"V. c #B14C6D",
"C. c #8D736A",
"Z. c #B27668",
"A. c #DB7A48",
"S. c #CC7450",
"D. c #E37C4A",
"F. c #CD7868",
"G. c #C75D49",
"H. c #C13F31",
"J. c #7D827C",
"K. c #CF8532",
"L. c #E68739",
"P. c #B98556",
"I. c #928476",
"U. c #B88778",
"Y. c #B08C6F",
"T. c #C9864B",
"R. c #D7884B",
"E. c #C78955",
"W. c #D78A56",
"Q. c #DA9457",
"!. c #D9934E",
"~. c #E88847",
"^. c #E4885A",
"/. c #E79958",
"(. c #EC974C",
"). c #F4A45C",
"_. c #ECA15B",
"`. c #C68A67",
"'. c #CA956A",
"]. c #D99A6A",
"[. c #CA9977",
"{. c #D69B74",
"}. c #CD8870",
"|. c #E89864",
" X c #EC956C",
".X c #D9A278",
"XX c #D6A174",
"oX c #ECA368",
"OX c #F6A766",
"+X c #EAA97A",
"@X c #F3A978",
"#X c #F8B27B",
"$X c #151C98",
"%X c #6E0991",
"&X c #673698",
"*X c #6D318E",
"=X c #793DAF",
"-X c #5C25B2",
";X c #2B6AA2",
":X c #4E6599",
">X c #7548AF",
",X c #6569A4",
"<X c #5E38C3",
"1X c #8E3A90",
"2X c #8826A8",
"3X c #8D4796",
"4X c #9A6A92",
"5X c #864BB1",
"6X c #AB5E8E",
"7X c #7999CE",
"8X c #7B8084",
"9X c #949289",
"0X c #A69789",
"qX c #B4948D",
"wX c #B3A594",
"eX c #9489B7",
"rX c #AE96AE",
"tX c #B8B2AA",
"yX c #CD9888",
"uX c #CAA487",
"iX c #D8A887",
"pX c #C6AA96",
"aX c #D9B59A",
"sX c #D0AD99",
"dX c #EAAB83",
"fX c #E9B48A",
"gX c #F7B589",
"hX c #E9B897",
"jX c #F4BA97",
"kX c #EFAA89",
"lX c #C7B8A8",
"zX c #D7BAA6",
"xX c #D3B4B0",
"cX c #E6BAA6",
"vX c #F4BCA3",
"bX c #E09381",
"nX c #F9C29A",
"mX c #EEC09E",
"MX c #DAC4AD",
"NX c #D8C7B4",
"BX c #CCC2B0",
"VX c #E9C5A9",
"CX c #F6C8A6",
"ZX c #E9C9B5",
"AX c #EAD2BB",
"SX c #F6CFB4",
"DX c #8A97CA",
"FX c #95A9D5",
"GX c #AFB1CF",
"HX c #AEBCE3",
"JX c #C3B6CB",
"KX c #B5C3E6",
"LX c #D1C9D1",
"PX c #EDD8CA",
"IX c #F5E4D5",
"UX c #D8D6E5",
/* pixels */
"b.N.!.).OXOX|.R.P.e.P.T.m.w.5.@.r.'.mXmXgX@XOXjXZXLXGX4XC.q.p.L.~.OXnXmXVXtXI.S b.[.VXnX#XgXnXnXmXXXP.r.w.w.8.8.e.e.8.3.t.^.gXnX",
"n.m.Q.oXOXoXQ.P.q.q.n.e.q.7.} } 5.P..XmX+XoX|.+XcXLXGXrXY.p.p.L.~.OX#XjXMXzXwXY.P.'.mXnX#X#XnXmXXXY.P.4.9.9.{ 5.0.9.2.@.3.i. X#X",
"!./.).OXOXQ.n.c v i z j j i 1 < < c P.`.A.p.p.S.dXcXPXVXdX~.p.y.~./._.OXmXVXVXmX+X/.oXXX_._.oX].P.0.v % u u 1 u u u % 0 Y 8.D.~.",
").).).oXQ.P.c % O # = =   X , >   % l 4.3.3.( 8.M..XcXjX#X(.8.4.R.~.K.!.'.mXCXCX#XL.K.r.m.m.m.r.l i O O - =   X > :   O 3 Y t.t.",
").).OX_.P.c j # w U / U : 8 _ _ 8 $ i i d p 1 f 7.N.F.^.).R.0.2.T.T.e.q.n.P.#X#XoXT.0.f x x x f % $ r ! ~ U ; 8 ( _ 0 # + 9 _ #.",
"fX+X].E.9.p + - ^ |  .( 3 9 #.#.a # + O + X     O 6 #.w.S.m.x z 9.n.0.x v 0.T.!.!.e.2.O     # @   ; ! .. .( 3 9 #.#.! #   X 6 L ",
"SXaXY.b.5.L 5 t } ..o.I 3 6 X.$.s 1 e U w 1 X     @ 9 } c x % % x x j % % i c 0.0.5.&.U - = e U 8 0 ^ '  .Y 3 4 #.*.^ #   . @ : ",
"ZXzXI.c Y R U s ~ ' 8.8.x.7.>.o.9 1 _ | ~ 0 < O # + O + < < $ o $ % $ X X O $ < 1 ^  ...8 , ( _ ^ s e ` *.8.x.x.H.X.a ; < # O X ",
"mXuXS k [ Q ] a K _ u.F.yXZ.u.R 3 1 @.+._ U 8 1 s 0 # @ 9 r ; < q r 2 2 t t 8 8 ; a #.#.0 0 | #.{ ! 7 _ u.S.yXU.u.R 4 ; w w q ; ",
"fX[.S j %.o.' ;.y x.F.iXzXaXF.,.t , +.3._ ! e a ) ^ 1 1 Y Y 5 : U Y r r r U U 7 > r #.#.s s  .#.' h y d.F.bXzXzXF.>.k , ` ` e r ",
"fXXXF j [ Q Y h g &XrXzXPXSXcXZ.Z : ..X.^ ! ^ _ O._ p a $.#.8 - I P K 6 7 U @.@.0 w #.#.0 q @.+.( h b D rXNXPXSXhXZ.Z : .. .) ^ ",
"mXpXG k %.R Y h b ;XFXLXIXIXPXyXA : Y ..~ s ~ _ #.| a ! $.$.s p +.*.;.;.;.[ =...0 s #.O.r q `  .( h b :XDXLXIXIXZXyXF y ..o._ ) ",
"VXaXG x %.R P n $X;X7XKXUXUXPXpXF , Y W ) f ^ _ #.| 0 8 ( | f 2.3.p.N.b.x.:.=.P 9 s #.#.0 0 [ #.Y n b ;X7XKXUXUXPXpXC.u %.W ` ] ",
"VXpXC.z %.R Y ;.m :X7XHXLXLXxXyXA 1 ..o.~ s ^ _ #._ , @ 9 5.8.e.i.W.[.yX}.N.,.P 3 s $.#.w q @.O.Y -.m :X7XFXKXUXxXpXF t ..W / ~ ",
"+X'.A f [ Q ( f h B.4XeXDXFXqXc.k 8 @.+.^ ! ! _ #.@.:   % 7.P.!.~.oXcXVXcXbXv.L 3 s +.+.w 0 @.O.~ ] h B.4XeXFXFX6XM.k 9 %.X./ e ",
"dX[.A j Y W [ ! K [ V.4X,X,Xh.R 3 5 +.$.~ a ! _ #.| 1 * x e.!._.!.|.hXVXSXcXF.x.f 4 #.$.w q | +.[ ! K T V.4X,X,Xh.R 4 9  .+./ U ",
"ZXsXG j I E Y ] U [ ,.v.D M ,.Q 3 q +.O.~ ! ~ _ ....2 x P.Q.)._.e.P.P..XCXSXsX9XZ 4 o.X.0 q | O.} ! U T ,.v.D D j.W 5 9 O.X.Y 7 ",
"AXMX0XC.v.=.] s U /  .( 2 y o.X.8 8  .:.d.n d.d.%.( u 0.E.oX_.T.c l 2.P.hXCXxXrXD h <.X.w p | O.~ ! ! /  .( , 5 o.X.w 8 ~ ' { 5.",
"VXVXBXwXF.c.] 7 ] `  .| t r O. .0 , ( f.k.1X1Xk.1.) f b.Q._.K.2.d X # C P.iXsXrX>X%Xj. .9 8 _  .~ s ] [  ._ t r #.#.a ; 3 f 9.w.",
"+XfXZXcXbXG.;.4 ! { +._ 5 9 #.>.n k [ f.1X=X3Xk.j.( l 9.Q.Q.n.C J o   l r.].bXrX,X%Xg.=.n n ,.<.[ a ! ) | _ 5 r $.$.a =   u q.e.",
"A. XjXjXbXG.;.6 ! { +._ 0 s +.h.m &Xg.f.k.M 1Xk.<./ 8 7.A.|.[.4XB & . l K.!.XXqX*XM j.j.M *Xl.g.] U ^ ^ +.' q 0 $.$.! @   u 5.w.",
"t.D.kXgX XG.;.4 a ' +.` q p *.h.&X&XV.g.d.M k.d.<._ 3 f w.}.sXtXG H x r.L./.'.Z.D N j.h.&X&XB.g.;.h h ;.&.@.q p $.$.! =   i &.8.",
"i.^.kX@XD.u.] 4 ! { +._ 8 s *.h.&X&Xl.g.d.k d.;.>.| , 2 %.F.cXsXY.C.N.T._._.P.C.M h >.h.*X&Xl.g.k.n k.d.<._ 0 s $.$.! #   ; ) | ",
"A.^.hXkX XG.;.3 ^ ` +.| q p *.h.*X*Xg.g.d.k.k.k.,.| ; X y v.yXkX[.`.!.(.(.W.C.m m k.f.h.*X*Xg.g.k.k.k.k.,._ 8 s $.$.! ;   u 2.8.",
"Q.+XSXSXkXF.d.4 ! ) @._ 0 s *.,.n N { h.1X5X2X1Xh..., o i c c.S.R./._./.K.q.D $X<X2Xl.>.n n %.f.1X3X1X1Xf._ q t $.$.e # . v q.i.",
"E.[.VXZXVXiXC.k ] Y +.' 0 w +.,.m n &.h.5X=X5X1Xh.o.1 J c 2.P $.i.(.oXQ.4.5.N $X<X2Xl.,.n M ,.f.k.1X*Xk.,.| q s #.#.e i j 9.P.Q.",
"c n.{.fXCXMX0XG k I &.{ 5 6 Q z.&X&Xg.V.1X=X=X1Xj.) l c m.m.} 2.E.].E.n.3.-.N %X-X-Xh.h.&X&Xk.h.d.d.s.s.E P 5 s #.O.4 u 9.P._.OX",
"  f w.+XCXAXtX8Xx.I %.%.r k G.V.>X&Xk.g.3X=X=X1Xd.' 2.0.m.m.l c E.W.M.0.! z.6X6X5X5XV.h.&X&X1Xh.] f x.B.v.8.t r O.O.3 x e.Q.OX#X",
"  d 4.].CXSXBX9XC K E %.f F qXqX,XF ;.z.3X5X>X5Xg...f l 7.c % x P.E.q.6.} v.[.xXJX4X6X1.N M f.,.7 n I.qX0XZ.k 7 ..| p c E.oX).).",
"  l 4.].CXAXtX9Xx.L E <.C C.lXlX9XD W z.1X5X2X1Xg...s $ % $   x P.!.9.6.2.m.hXvXcXxXF.R y y =.%.7 Z 0XtXtX0Xx.7 Q ..d 6.T._.).).",
"@ 7.K.kXSXAXwXC.d.I E 5.C.0XLXBXI.x W 1.2X=X3X1X,..., . . o   c T.!.b.7.2.m.fXSXPXvXF.R > : W W 7 C wXtXBXwXx.7 W | 9 c P./.OXOX",
"- 7.T.dXCXVX9XA ;.P P ;.b.9XNXNXwXC.8.j.1X%X1Xk.f.d.m b g = # b.[..XY.0.' m.+XjXCXkXS.-.N N h T 7.Y.tXNXBXwXC 7 o. .4 f r.Q.@X#X",
"O s u.^.@XiXI.c ;.E P [ l I.fXCXMXzXF.,.N g -.d.l.6X&X&Xs.U 1 G BXlX0XI.f 5.^. XOX XG.j.%X$Xb j 4XwXVXVXXXP.x 6 X.+.9 0 @.S.fXCX",
"l 5.t.i.~.!.9.x ` Y ../ p 6.`.fXSXZXkXF.C.x.3.8.l.2X>X2Xg...> S pXBX0XG k &.D.).|./.G.V.5X<X:X8XwXBXVXmXP.2.d 7 $.+.9 > K c.iXvX",
"m.i.y.y.p.0.v i /  .+./ : v 9.'.hXVXcXcXxXsX[.F.1X2X<X5Xl...- Z [.wXI.Z 4 8. XjXjXiXZ.B.GXGXGXBXMXaXiXY.0.i q U #.#.w = : 6.}.iX",
"Q.Q./.W.r.d o @ /  .+.) @   d n.].jXCXPXAXMX.XF.l.2X=X5Xh.#.d b.[..XY.9.5.m.dXvXzXqXA F tXLXLXNXCXmX_.r.i   , ~ $.#.s +   v M.W.",
"|. XjXiXC.j o - ) $.O.) ; . @ 5.i. XjXSXNXtX'.G.j.z.-X1Xj.$.u.E.dXaXuXE.K./.gXhXwXJ.J V I.lXNXAXnX#X~.4.d   1 ~ $.#.a + . u 8.r.",
"^.@XCXzXJ.J & ; _ +.#._ 2 . . e t.A.@XhXpXwXZ.u.j.z.N M >.t.p.].hXcXiX].!.Q.XXyX9XB & z G Y.aXnX#X).L.3.! : 1 ! $.#.a #   < ' #.",
"D..XCXzXI.B & - ` +.#.` 2 . . 5 | u.D.|.U.Y.M.c.,.L g h 3.t.K.].mXVXfX{.!.p.e.b.z & B S V n.Q.OXOX!.L.u.&.L q ^ #.$.! @   i 2.3.",
"D. XjXzXI.J o - _ +.+.) 2 . . : 6 | t.i.P.qX[.`.w.2.p } p.K.p.Y.aXaX.X'.m.4.d < * S 9X9XP.4.K.L.!.T.p.8.$.Y r s #.$.e #   i 8.u.",
"@X+X+X'.9.i o = ) #. ./ =   o $ @ r Q S.yXcXvXhXE.q.x.b.E.!.n.M.].XXY.P.c % $ j H 9XNXZXdX_.(.K.n.6.5...| / 4 r $.#.a #   i 9.e.",
"fXdXW.r.2.r # 1 ) O.| Y , O q p X @ 7 v.yXvXvXgX.X'.Y.[.XXXX0XY.iXiXpXI.F S C C.0XlXAXSXgXOX!.m.x i U Y | _ 4 r #.#.e #   i 0.9.",
"ZXlXY.5.%.Y q q / _ ..Y : > _ ` 1 X @ k N.}.^.@XfXcXVXhX+XfXzXNXAXAXPXBXsX[.[.iXNXVXmX#XOXoXP.c % # ~ .. .Y > 6 X.X.! +   o i v ",
"NXpXS > ..o.s w Y %.8.v.b.x.*.W 9     $ T *.t.D.iXhXVXvX#XgXVXAXIXIXIXAXmXdXfXjXSXVX.X!.!.T.q.f $ ; L ..8.c.b.x.>.o.r = < < # + ",
"iX[.C 1 ..X.] e 7 +.S.}.yXU.u.R 4 . . o 2 s ^ 9.M.[.bXkXOX@XkXcXPXIXIXCX#X(. X@XfXiXP.2.0.0.5.} u > K +.G.}.yXyXH.R 6 - a a 0 8 ",
".XY.C 2 ..X.~ h h C.yXxXcXcXF.8.f O # # + + @ t c v.F.^.^.D.S.bXNXAXSXhX^.i.D.W.XXE.7.< i d @.O.e t h B.}.aXZXcXbX8.k , ) | U r ",
"MXuXA t ..o.Y k m ,XrXLXIXPXcXZ.Z @ 9 r 2 < O O % k 7.8.q.8.:.M.fXmXfX[.c._ 5.q.e.r.2., O p | #._ h N :XrXLXIXPXzXqXC t ..X.( ^ ",
"MXpXG t ....L n $X,XGXUXIXIXNXqXA : U ( s 2 $ .   @ 4 w f f 3 5.`.XXP.q.f : 3 s } ' ~ r # , +.$...k $X;XFXLXIXIXZXyXF t %.o./ ^ ",
"aXpXS f ..W I n $X;XFXKXUXPXLXwXA 3 ..o./ p < # < < < < u 1 + x n.m.0.x 2 @ < 1 p ) #.O.0 q +.#.Y n b ;X7XKXUXUXcXsXC.t ( o./ ] ",
"aXuXS t ..o.Y k H ,X7XFXHXJXsXY.C 6 X.X.( s w p ! 0 < @ 6 6 $ % l l d < 1 5 2 , : U $.$.s q +.O.Y k m ,X7XHXHXKXxXyXC q ..../ ! ",
".X'.c ,  .o.) h T B.4XeXDXeXF.:.f 9 +.+.~ a ) ) ..~ , 3 E E 9 $ % % o < ! / I K 3 r $.$.s 0 | $.` s T B.4X4XDXeX6Xc.k 9 =.X.` U ",
"iXY.C ,  . .] e I <.V.4X,X>Xj.R 4 r +.$.! e _ | | ' r y =.o.r = : ; X , /  .=.Y y e #.O.r 0 +.+.] U P <.v.4X:X,Xj.E 4 9 +.+./ e ",
"NXlXF 2 W W ] r Y %.,.B.D n <...9 r | +.U r ~ _ | ` p s <.=.5 > ] T y r ) | %.[ t ! X. .5 5 |  .] e Y [ ,.x.D M <.o.7 w | O./ e ",
"ZXBX0XC.7.Y 5 t ` | +./ r U O.+.w 0  .X.U 6 6 e _ 5.n.N.F.Z.c k N.Z.x.c ` 5.m.Z.C.b.:.L - 3 W ..U U ^ _  ...9 e X.+.s 2 U ) { 5.",
"mXVXBXwXC.3 O , { &.../ r ! #.+.p 5 W Q L > O = a q.'.iXsXqXZ V qXpX9XA } c.bXhXlX9XZ + . - R R I 7 ) '  ._ 9 a $.$.a = + p 0.q.",
"#XhXCXBX0XH & @ [ ..( Y 6 U X. .5 0 O.8.v.b.Z z 2.p.+XnXcXlXI.C.sXzXqXC.5.m.dXCXcXtXI.J j 6.c.c.;.k ] / ..Y 3 7 X.X.9 O   x e.T.",
"~.oXjXZXBX9XB . K P I K > 6 R P = : 3.S.uXwX0XI.w.y./.kXmXhXY.[.aXaXXXY.w.i.).gXCXzXtX0XY.P.iXyXC.Z y L P L : > R R :   i 9.!./.",
"t.D.@XjXNXBX9XS 7.:.,.7.c x.8.:.c C e.].hXVXzX{.R.y.D.|.+X+XoX].dXdX+XoXK.p.D. XhXVXNXzX{.{.vXzX0XG x.%.,.8.c x.8.:.c Z b.T._.OX",
"#.u.a.oXCXZXtX0XZ.S.M.Z.U.Z.S.S.I.Y.].@XgXjXjXgX/.y.8.w.T.R.~.(._.).OX).L.u.3.c.'.fXCXCXdX@XjXCXlXtXZ.M.S.M.Z.I.S.G.I.0X'.oXoXOX",
"L  .t.~.gXVXMXzXiX}.{.iXpXyX{.{.pXlXdX+XkXkXgX@X!.p.~ 4 ' 4.p.D.~.(.OX).!.c.K T n.'.fXgX|.|.kXjXNXlXuX{.{.iXsXuX{. XsXsXfX#X).).",
": r ..u.D.OXCXZXhXkXkXjXVXcX+XdXVXZXfX].S.G.A.E.T.9.f O < d 3.p.~.).).Q.M.Z N g x n.S.R.p.p.i.{.aXVXhXhXkXfXvXcX+XkXvXCXhX@X_.(.",
". = 7 X.t.D.gXvXgXkXkXgXjXjX X+XvXCXiXm.` I @.8.0.c %     + 6 8.R.(.!.P.C.m b b * d 2.4./ ( ' e.yXfXfXgXkXgXjXjX#XkXjXvXfXoX!.K.",
"  O = U o.i.|.OX^.^.^.^. X|.D.D.oX].P.c u : p d j i $ o   X = 6.T.!.K.b.:X$X$X$X* $ d d 1 1 1 l v.S.^. X X^.F.D.|./.D.F./.Q.e.q.",
"      3 R u.a.L.a.p.y.a.~.a.y.y.~.K.0.% o           o X   o . c E.!.4.6.$X$X$X$Xb       . . . + K X.a.~.~.D.y.p.(.~.y.y.~.!.q.0."
};
