/* XPM */
static char *_aa8936a7d544e2c829dd22752ff0660D35y7JNpkvL7XEMw[] = {
/* columns rows colors chars-per-pixel */
"32 32 244 2 ",
"   c #010101",
".  c #030707",
"X  c #170602",
"o  c #081604",
"O  c #000316",
"+  c #151812",
"@  c #240101",
"#  c #2A0102",
"$  c #24080A",
"%  c #390504",
"&  c #261605",
"*  c #2F140D",
"=  c #30230C",
"-  c #440102",
";  c #4C0101",
":  c #4B0809",
">  c #530201",
",  c #5A0201",
"<  c #560C02",
"1  c #4B1508",
"2  c #541402",
"3  c #5A1402",
"4  c #5B1903",
"5  c #59170B",
"6  c #581711",
"7  c #59071E",
"8  c #610000",
"9  c #6B0702",
"0  c #7B0001",
"q  c #760700",
"w  c #661905",
"e  c #771904",
"r  c #711E13",
"t  c #691112",
"y  c #5D220F",
"u  c #46371D",
"i  c #4E2F15",
"p  c #7D2407",
"a  c #643202",
"s  c #7A2314",
"d  c #633917",
"f  c #732C0F",
"g  c #410036",
"h  c #543825",
"j  c #4A3430",
"k  c #6E2E30",
"l  c #621132",
"z  c #6E4713",
"x  c #5A433B",
"c  c #4C4636",
"v  c #664324",
"b  c #7A5228",
"n  c #755330",
"m  c #704C33",
"M  c #00014A",
"N  c #16306C",
"B  c #531849",
"V  c #552A47",
"C  c #64205B",
"Z  c #562479",
"A  c #324B4C",
"S  c #13545A",
"D  c #5B544B",
"F  c #685C56",
"G  c #6C5045",
"H  c #5D625C",
"J  c #756853",
"K  c #74716C",
"L  c #850001",
"P  c #8A0000",
"I  c #920201",
"U  c #9B0201",
"Y  c #910D00",
"T  c #841D01",
"R  c #8C1C00",
"E  c #8A1500",
"W  c #981901",
"Q  c #A60600",
"!  c #AE1D01",
"~  c #AA1802",
"^  c #B51B00",
"/  c #B10F00",
"(  c #8C2401",
")  c #892807",
"_  c #932301",
"`  c #9B2602",
"'  c #952B08",
"]  c #8A3204",
"[  c #9C3403",
"{  c #872915",
"}  c #863718",
"|  c #A42300",
" . c #AC2501",
".. c #A32B03",
"X. c #AB2D02",
"o. c #A62E0C",
"O. c #B42B01",
"+. c #BB2804",
"@. c #AC3102",
"#. c #AB320A",
"$. c #A43509",
"%. c #B33402",
"&. c #BC3403",
"*. c #BE3903",
"=. c #B7370B",
"-. c #A93618",
";. c #AE2C17",
":. c #A9362A",
">. c #A13836",
",. c #BB3937",
"<. c #B6302B",
"1. c #842B25",
"2. c #C23906",
"3. c #C22F07",
"4. c #C13C27",
"5. c #9B4A00",
"6. c #94540E",
"7. c #A15501",
"8. c #AD480C",
"9. c #8A5B34",
"0. c #884F29",
"q. c #B25224",
"w. c #AD4C3C",
"e. c #9A6936",
"r. c #966634",
"t. c #B27037",
"y. c #A5680E",
"u. c #CF6C18",
"i. c #D25E2D",
"p. c #D76728",
"a. c #D87538",
"s. c #CB6E32",
"d. c #E47B37",
"f. c #E2762F",
"g. c #C54B00",
"h. c #931A50",
"j. c #862E50",
"k. c #B23C55",
"l. c #87326B",
"z. c #AC3C68",
"x. c #B84941",
"c. c #866B59",
"v. c #946E4F",
"b. c #B47645",
"n. c #AB6F53",
"m. c #845C64",
"M. c #8D7B6C",
"N. c #9D6A60",
"B. c #D77759",
"V. c #D36D49",
"C. c #E27E5C",
"Z. c #D47663",
"A. c #C5434D",
"S. c #7F827B",
"D. c #DF823C",
"F. c #E3873A",
"G. c #B8814B",
"H. c #8E877C",
"J. c #AE886B",
"K. c #C7844B",
"L. c #D38A49",
"P. c #DE9249",
"I. c #D48C56",
"U. c #DB9759",
"Y. c #C28C55",
"T. c #E98749",
"R. c #E29445",
"E. c #E88D54",
"W. c #E99958",
"Q. c #F29A50",
"!. c #EFA35E",
"~. c #F6A55C",
"^. c #C99366",
"/. c #D79967",
"(. c #D59B77",
"). c #CD8B6B",
"_. c #EB9866",
"`. c #EF966E",
"'. c #D6A27A",
"]. c #ECA363",
"[. c #F7AA6A",
"{. c #E8A976",
"}. c #F2AB7B",
"|. c #FBB378",
" X c #000E8D",
".X c #2032A0",
"XX c #543499",
"oX c #512FB0",
"OX c #6F3AAC",
"+X c #662A82",
"@X c #004B8B",
"#X c #075293",
"$X c #2C588F",
"%X c #7C41AB",
"&X c #5F62A4",
"*X c #7045C3",
"=X c #5C7FC1",
"-X c #873D96",
";X c #992D8A",
":X c #A33D86",
">X c #813DAC",
",X c #981893",
"<X c #A8698C",
"1X c #8C43A8",
"2X c #935693",
"3X c #7F8883",
"4X c #608CCD",
"5X c #929388",
"6X c #B49A8D",
"7X c #B4A28D",
"8X c #BCAA99",
"9X c #BEB6A9",
"0X c #ABB1A3",
"qX c #DCAA83",
"wX c #D7AC9B",
"eX c #D2B09B",
"rX c #E8B48C",
"tX c #F6B58B",
"yX c #E8BB98",
"uX c #F4BA94",
"iX c #E8A98A",
"pX c #C7BAAB",
"aX c #D5B6A4",
"sX c #CAA9B4",
"dX c #E8B5A3",
"fX c #F0BAA0",
"gX c #F9C49C",
"hX c #D8C0AD",
"jX c #D9C6B5",
"kX c #EBC6A8",
"lX c #F6C8A8",
"zX c #E8CCB7",
"xX c #F7D3B6",
"cX c #EDCEB6",
"vX c #94ACDD",
"bX c #BEB4CA",
"nX c #8BADE1",
"mX c #9799C0",
"MX c #C3BACD",
"NX c #D0CCCF",
"BX c #ECDCCD",
"VX c #E2CBC5",
"CX c #FFE8D1",
"ZX c #D5D5E2",
/* pixels */
"v.W.[.I.b.G.b.[ t.lX}.[.VXmXn.d.Q.gXhXM.J.gX|.gXqXt.t.q.b.-.p.uX",
"Q.[.U.n   % X - o t.i.8.{.cX].g.E.R.rXxX~.L.I.L.b . % X %   Y u.",
"[.!.b   ' o.< %.2 o % $ r a.I.h K.r.9.].U.i * =   ' ..2 &.2   ~ ",
"zXc.Q r ' #.w =.2 ` p     > h o = + o d f X.- ` w ' =.5 2.w   @ ",
"qXc  .{ L Z.eX^ % =.( w ( * E 2 ( r s q : 2.4 &.{ 0 Z.wX+.: ' w ",
"yXD ^ _ N bXCXwXj O.p _ %.w 2.;  .0 Y =.w 2.3 #.T N bXCXwXj +._ ",
"hXF ~ R #XnXZXhXc ! p ' %.- _ 0.s.n.n.Q 6 *.3 -.Y @XnXZXaXD ! ) ",
"].c ! 1.I <X4X4.; #.) ( %.  m U.W.lXdX>.3 &.3 @.{ L <X4Xx., =.T ",
"zXH / s _ :.V +.< @.s { ..v I.].9.b.lX9X7 &.6 %.) T :.V +.< @.) ",
"yXjXZ.q { @.< 2.2 @.-X-X~ n !.6.. # Y.sXoX<.3 %.{ { ..< *.4 - t.",
"a.tXC.9 { #.4 x.XXk.l.l.X.w B.8XS d R.).Z 4.XXz.T ( $.5 2.4   q.",
"V.tXV.9 ' #.3 4.XXk.j.j.%.# >.yXJ.L.[.m.C ,.XXk.l.l.X.5 2.w   -.",
"_.xXwXk _ @.4 <.B =.1X1XO.+ v %.T.].y.N *Xk.B -.-X-X$.6 &.2 u K.",
"h /.xX5XP -., <.oXx.>X>X` m B.d I.n.L ,XoXx.oXz.{ j.~ 2 &.2 G.[.",
"@ s.xX0Xq ^ G pX&XW 1XOX@.a d = I.9.5.dXsX,.l ,.8 0X6X9  .v W.!.",
"a _.xXS.U U 5XjXJ O.OX:X@.M X u /.v.7.gXkX,.g ..s sXhX9 O.y L.[.",
"3 i.!.J W ` b rXzXZ.l [ :XOX:.x jXH.L E.W.A.oXN 7XlXG.9 *.< =.yX",
"L.F.7.o | o.  e.uXcXjX/.,X*X<.= '.c.] uXeXm.MXNXgX^.& w *.5 - (.",
"_.fXF   #.@.O < f.uX9Xn.h.+X2.V.yX(.R.rX3X  5XkX|.u.: p *.4   8.",
"C.cXF   o.#.. # ..f.J.Z.$., u.L.kX'.t.6.. H.9.P.U.s.| w *.3   q.",
"{.I.f . X.|   1 $ ;.dXlXG.M._.M.'.J.A h 5XBX|.P.m W ..8 *.3   t.",
"jXm  .f W :.k @.% $ w.T.dXkX}.zXBXBXrXqXzX[.W.9.. ` -.k &.<   = ",
"(.j O.s U qXwX3.- . ; w n.`._.iXBXxXT._.{.z z -.6 I (.aX4.> ' e ",
"eXx O.T #XMXCXeXj R y . # ( 0.E iX^.0 ] 7.e # 2._ @XbXCXaXj O.( ",
"aXx O.e $XnXZXeXh 3.) 2 w * < = e.d : 1 t 2.4 =.E $XvXZXeXj +.{ ",
"(.i O.s Q <X=X+., =.e ..o., ^ < #   | W 8 *.4 %.s I <X4X<.> =.R ",
"jXH X.r | >.k +.3 %.e _ [ 0.x.6 w.k ` w.m O.; O.T ' :.l =.w ..{ ",
"gXhXF   -.` e =.5 O.{ O 7.iXpXD aXH.5.yXpXj @ ;.e ' X.w 2.5 . t.",
"d.gXpXA U P , / % s.aX7Xu._.uX/.rX(.u.`.cX9X^.yXK 0 Q > / % r._.",
"| F.lXpX).).6X).7X{.uXtXF.W t.T.Q.[.a.U ^.gX_.gXhX).).6XB.7X{.~.",
"% | f.lXtXuXfX[.cX'.! s.e.  X o.W./.m.M d s.8.u.aXuXtXfX}.lXtXP.",
". % 3.Q.V.d.T.p.E.m   * & X   u U.y. X.XX & $ X ;.T.E.i.W.p.E.e."
};
