/* XPM */
static char *a117d970c9394e78d2e837f8e4607cceEwtAXhn1tI7rXku5[] = {
/* columns rows colors chars-per-pixel */
"32 32 241 2 ",
"   c None",
".  c #000100",
"X  c #050104",
"o  c #0D0C15",
"O  c #230001",
"+  c #2C0D08",
"@  c #091B2D",
"#  c #152A31",
"$  c #480000",
"%  c #5D0000",
"&  c #4F0C10",
"*  c #670100",
"=  c #7A0000",
"-  c #721F07",
";  c #523014",
":  c #652503",
">  c #732200",
",  c #660030",
"<  c #593832",
"1  c #2B6300",
"2  c #385235",
"3  c #60521A",
"4  c #7C6B1A",
"5  c #5F5C39",
"6  c #747336",
"7  c #041054",
"8  c #000075",
"9  c #08176E",
"0  c #2B1B77",
"q  c #351A72",
"w  c #3A2877",
"e  c #552B71",
"r  c #562E47",
"t  c #007C4C",
"y  c #3F6343",
"u  c #6B6548",
"i  c #44406E",
"p  c #62567C",
"a  c #7E7C6D",
"s  c #8D0000",
"d  c #800000",
"f  c #920000",
"g  c #9A0100",
"h  c #971501",
"j  c #8B180C",
"k  c #A70500",
"l  c #BD0000",
"z  c #B10400",
"x  c #A21300",
"c  c #9B2501",
"v  c #932C05",
"b  c #AB2700",
"n  c #B62902",
"m  c #A83900",
"M  c #B73709",
"N  c #982B31",
"B  c #A13724",
"V  c #B8392C",
"C  c #B22938",
"Z  c #C80000",
"A  c #D62B00",
"S  c #DB3A07",
"D  c #C13404",
"F  c #E73D00",
"G  c #D23C29",
"H  c #925707",
"J  c #AA4900",
"K  c #B34D00",
"L  c #8A6F10",
"P  c #974C2F",
"I  c #98753A",
"U  c #A76B39",
"Y  c #B96E35",
"T  c #A96623",
"R  c #D54207",
"E  c #D04D18",
"W  c #F55100",
"Q  c #CB492D",
"!  c #D87328",
"~  c #E1741F",
"^  c #A43E57",
"/  c #BE505F",
"(  c #8D6F4C",
")  c #B37953",
"_  c #AD4C6E",
"`  c #B36C72",
"'  c #D5574A",
"]  c #EA7B5C",
"[  c #E97D44",
"{  c #D77459",
"}  c #69904B",
"|  c #4E9254",
" . c #8C853C",
".. c #948539",
"X. c #8C812B",
"o. c #A1843F",
"O. c #F58E38",
"+. c #FFA127",
"@. c #968A4D",
"#. c #AB9252",
"$. c #A6916E",
"%. c #BCA779",
"&. c #B7A96B",
"*. c #CC8A4F",
"=. c #E7955A",
"-. c #F89D5C",
";. c #EE8D51",
":. c #F6A45D",
">. c #CA8F70",
",. c #E6986D",
"<. c #CDB074",
"1. c #FEB26A",
"2. c #E7A377",
"3. c #F8A664",
"4. c #C3B142",
"5. c #000086",
"6. c #00009A",
"7. c #092E8E",
"8. c #2D2F8F",
"9. c #0006AB",
"0. c #0013AB",
"q. c #003BBB",
"w. c #005CB7",
"e. c #006ABF",
"r. c #2B6BAA",
"t. c #7A6BB4",
"y. c #5B5A9B",
"u. c #0013DB",
"i. c #0039DA",
"p. c #0835C6",
"a. c #003CEB",
"s. c #2534D3",
"d. c #0142D6",
"f. c #0C45CF",
"g. c #2345D9",
"h. c #3E4BD9",
"j. c #0079C7",
"k. c #0047E5",
"l. c #005EE4",
"z. c #007AF4",
"x. c #2F7BE4",
"c. c #4850D9",
"v. c #7C7ECD",
"b. c #615BE2",
"n. c #4750E1",
"m. c #9D4581",
"M. c #A8598D",
"N. c #936E93",
"B. c #AA739E",
"V. c #B36E92",
"C. c #9A6AA9",
"Z. c #8E71B3",
"A. c #A478AA",
"S. c #A472A9",
"D. c #887AC9",
"F. c #A377C0",
"G. c #008DAD",
"H. c #588284",
"J. c #7B8093",
"K. c #6282B3",
"L. c #4980B6",
"P. c #009BC8",
"I. c #0085CF",
"U. c #0098FA",
"Y. c #1599FF",
"T. c #3395F5",
"R. c #00A2FD",
"E. c #00AAFF",
"W. c #2EA6FC",
"Q. c #4F95D7",
"!. c #6889D4",
"~. c #4F96ED",
"^. c #5EA9F9",
"/. c #4EAFF8",
"(. c #6BA6E9",
"). c #76B5F3",
"_. c #74AFF1",
"`. c #6D93F0",
"'. c #9D918A",
"]. c #B5879F",
"[. c #AE93B5",
"{. c #B5BD8F",
"}. c #D0938F",
"|. c #E49884",
" X c #D8A687",
".X c #C7B897",
"XX c #D3B390",
"oX c #E9A689",
"OX c #E7AC97",
"+X c #EBB399",
"@X c #F1B78F",
"#X c #C8A4B7",
"$X c #D8B7BC",
"%X c #D0B1AE",
"&X c #F4B7A2",
"*X c #E8B6AD",
"=X c #CA94A2",
"-X c #B1CEA5",
";X c #C2C8AF",
":X c #FCC7A4",
">X c #F7C9B6",
",X c #FFE2BA",
"<X c #978FCC",
"1X c #8994D4",
"2X c #8C8FCA",
"3X c #A496CC",
"4X c #8FA8D7",
"5X c #99AAC7",
"6X c #B1ADD1",
"7X c #999EE5",
"8X c #8CB2F0",
"9X c #A6B6EB",
"0X c #C8AEC6",
"qX c #99C1EB",
"wX c #9EC7F0",
"eX c #ACC3E5",
"rX c #A7C5E9",
"tX c #B4C5E3",
"yX c #B4CAE6",
"uX c #BCCAE2",
"iX c #B8C5E8",
"pX c #ADCFF2",
"aX c #B2CDF1",
"sX c #B6D4F5",
"dX c #C6CADA",
"fX c #D5D0D3",
"gX c #FADBCB",
"hX c #ECDFD5",
"jX c #EAC6C4",
"kX c #FAE6CF",
"lX c #EEE3D7",
"zX c #F4E4D3",
"xX c #F9EAD8",
"cX c #FFF3DF",
"vX c #C6C9E5",
"bX c #C7D4E6",
"nX c #CFD6EC",
"mX c #F8EFE1",
"MX c #FEF3E2",
"NX c #FDFCEA",
"BX c #EFEBE0",
/* pixels */
"                                                    j M &       ",
"                            b b                   j V :         ",
"                          B C &                 s M.6X,.        ",
"                        x [.x.      v         = ` `.U.F.:.1.    ",
"                      o O.` N.2.+.>X&XA       J }.W.l.    [ :.  ",
"                      g ].Q.Z.V.XXNX>XZ     = ` 8XY.s.    -.1.  ",
"                    s V.~.E.z.9.  ;X>.    = / 1XE.U.g.      [ -.",
"                  O ~ 6XR.qX7X      z Q = _ 1XU.).iXc.      S 1.",
"      =.          j ].(.).bXdX3X    B N J =XU./.dX9Xg.      ;.;.",
"    ; *.*.:X,X;.z M.Q.).dXtXiX8X    B l ) 4X(.tXbX9Xg.      -.A ",
"      . =.xXfX{ W <X).bXeXyXuX`.    c ' v.W.uXtXaX9Xn.        [ ",
"            . n |._.qXuXyXyXyX7X    k A./.tXuX9XbX8Xi.        3.",
"            j G 1XU.(.dXyXyXuX~.i.$ Z C.qXyXtXtXaXvXn.          ",
"          @ n G !./.dXeXeXeXeXsXK.N Q S.R.yXuXeXvX_.u.          ",
"          & r C 3XpXtXuXuXuXuXyX|.2XA.S.tXeXeXtXrXvXD.    - R   ",
"        % / !.S.&XwXuXkXhXzXxXoXB.E.Z.oXtXyXuXyXvXrXvXb.  > R   ",
"      $ Q 1XE.Q.V.*XlXkXzXzXkX@X[.E.A.B.qXlXzXhXkXnX^.a.  > S   ",
"      : =.4XE.W.V.&XmXhXzXzX@XA./.R.C.|.lXzXzXzXkXkXnXn.  > R   ",
"    $ C 1XbX8XU.` &XmXzXxXOXS.U.rXpXt.2.xXxXlXzXzXzXkXdXf., R   ",
"  $ C <XbXaXbXqXM.:XNXcX+XC.R.sXnX/.Z.|.MXxXzXxXzXzXxXcXdX< A   ",
"  : =.).      t.^       ;.gXsX    j._ {   xXNXMXcXkXXX{.oX: ' xX",
"O V iXr.    X + n @.4.W [.bX        n S       .X'.$.| } E % Q -X",
"D D.Y.    # t 2 k I X.E y.          M F         . 3 *.@.L v 4 L ",
"<XaX      3 #.u y._ 8.7.K   &.<.  #.U U <.<.&.  | y *.,.;X2.-X-.",
"6XMX      + Y *.[.$X$X6X<.L .... .@.U H ....I #.1 5 #.>.+X>.OX#.",
"O.&X      ; o ) ;.XX2.2.H.8 e q 8.. g m.q 0 w e 5.u #.h l s Z h ",
"z z *.-.;.P + * x s s f P 5X#X#X0X*.Y 0X%X#X[.%X6X( L E A R E z ",
"X . + x % B y.^ k ( P g ! :X:X X X:X:XOX X+X:XoXXX=.] E Y G k a ",
"    X . . # I.r.B ) @.g P jX%Xs b jX$Xv g *XfXP s OXfX)  .m '.MX",
"7 d.7.. 7 . # I.r.k a @.*XqXG.L *XeXG.L +X9XP.6 oXvXP.} b p jXxX",
"  k.d.9 q.7.7 p.8.9.8..XnXj.. .XnXj.X {.nXQ.X #.nXQ.7 + 0 q.i   ",
"        d.k.d.  g.a.0 .XsXk.8 .XsXz.5.%.bX~.9.$.nXT.9.9 q.7.p.  "
};
