/* XPM */
static char *f3e96d86c55147e0a265ed3c4139da79jFGK8Q2NUAxXWo8W[] = {
/* columns rows colors chars-per-pixel */
"64 64 256 2 ",
"   c None",
".  c #000001",
"X  c #080005",
"o  c #03021A",
"O  c #100C09",
"+  c #2A0706",
"@  c #020934",
"#  c #122B19",
"$  c #450000",
"%  c #580E07",
"&  c #670200",
"*  c #770201",
"=  c #641A00",
"-  c #781209",
";  c #52340F",
":  c #712D05",
">  c #691B32",
",  c #045136",
"<  c #2F5427",
"1  c #6E4E2E",
"2  c #756D33",
"3  c #5D6025",
"4  c #030C51",
"5  c #060E6C",
"6  c #04316E",
"7  c #363464",
"8  c #192953",
"9  c #4E336A",
"0  c #5D2959",
"q  c #086A42",
"w  c #1A636F",
"e  c #767247",
"r  c #50466C",
"t  c #6E5770",
"y  c #707576",
"u  c #5A5B54",
"i  c #880401",
"p  c #980001",
"a  c #891902",
"s  c #981801",
"d  c #8E0318",
"f  c #A90300",
"g  c #B70002",
"h  c #AC1900",
"j  c #8C2801",
"k  c #962901",
"l  c #92320D",
"z  c #A72901",
"x  c #B72701",
"c  c #B1370B",
"v  c #910E2E",
"b  c #973130",
"n  c #AF342A",
"m  c #CC0F00",
"M  c #D72A02",
"N  c #C53904",
"B  c #CD3306",
"V  c #D63D1B",
"C  c #91490E",
"Z  c #AD4E07",
"A  c #946D0F",
"S  c #924E2F",
"D  c #AD5131",
"F  c #947033",
"G  c #A86738",
"H  c #AF7033",
"J  c #B06900",
"K  c #DC4509",
"L  c #CE4810",
"P  c #D56D00",
"I  c #D2542C",
"U  c #D27834",
"Y  c #E66E3A",
"T  c #ED600D",
"R  c #983351",
"E  c #AD324E",
"W  c #953B68",
"Q  c #8E0755",
"!  c #914F4F",
"~  c #B3514F",
"^  c #867848",
"/  c #907052",
"(  c #B06E52",
")  c #8C5175",
"_  c #AE526F",
"`  c #89746B",
"'  c #B4726F",
"]  c #CB504E",
"[  c #CC724C",
"{  c #E87449",
"}  c #C8566C",
"|  c #CB7674",
" . c #E66861",
".. c #CA3652",
"X. c #598F4A",
"o. c #6E935B",
"O. c #31806B",
"+. c #948C35",
"@. c #A58C38",
"#. c #9D901C",
"$. c #EF8937",
"%. c #CC881E",
"&. c #9B8748",
"*. c #948E51",
"=. c #B19252",
"-. c #B9A95F",
";. c #B28E71",
":. c #B1A968",
">. c #8A8C76",
",. c #D38D54",
"<. c #F49757",
"1. c #ED8C52",
"2. c #FCA65B",
"3. c #FBA648",
"4. c #D89569",
"5. c #D09072",
"6. c #E99675",
"7. c #D5AC76",
"8. c #FAA764",
"9. c #F3AB73",
"0. c #C5A749",
"q. c #000299",
"w. c #031185",
"e. c #03288D",
"r. c #0002AA",
"t. c #0137B8",
"y. c #022DB1",
"u. c #2C33A2",
"i. c #57298D",
"p. c #0570AD",
"a. c #1861A2",
"s. c #564E92",
"d. c #6F518B",
"f. c #6F6993",
"g. c #7473B2",
"h. c #4762AB",
"j. c #0003D7",
"k. c #1505D2",
"l. c #0431CE",
"z. c #1524DE",
"x. c #0142D9",
"c. c #0B50D0",
"v. c #0074CC",
"b. c #054EE7",
"n. c #0072E9",
"m. c #346EE9",
"M. c #3358DB",
"N. c #4D7BCE",
"B. c #7078D5",
"V. c #516BE5",
"C. c #5A67ED",
"Z. c #4F3ACE",
"A. c #8A5890",
"S. c #A85A8F",
"D. c #946C97",
"F. c #A96898",
"G. c #B26D91",
"H. c #936FAE",
"J. c #A578A7",
"K. c #AB76AB",
"L. c #C57789",
"P. c #8478CC",
"I. c #0087B1",
"U. c #678FA7",
"Y. c #009CFD",
"T. c #078AF8",
"R. c #01A6FE",
"E. c #1AA4FD",
"W. c #29A5FB",
"Q. c #37A6F8",
"!. c #2690D6",
"~. c #548CD3",
"^. c #7590D4",
"/. c #70A7D2",
"(. c #5295ED",
"). c #6C94EA",
"_. c #56A8F6",
"`. c #4EAEFB",
"'. c #66A8F3",
"]. c #6FAEF1",
"[. c #55A5D6",
"{. c #77C2FB",
"}. c #AA9191",
"|. c #B6AD8D",
" X c #8F8DB7",
".X c #B898B5",
"XX c #AE8DAF",
"oX c #B6A9B1",
"OX c #9D908D",
"+X c #D99787",
"@X c #CF8E8E",
"#X c #EB9983",
"$X c #DBA996",
"%X c #D1AE92",
"&X c #E7A789",
"*X c #E5AA97",
"=X c #E9B599",
"-X c #F4BA98",
";X c #F6AB90",
":X c #C693AB",
">X c #D7ADB4",
",X c #D2B0AE",
"<X c #E6B7A5",
"1X c #E9B9AF",
"2X c #F4C69D",
"3X c #D1C7AE",
"4X c #FAC8A9",
"5X c #F9CBB5",
"6X c #FAD5B8",
"7X c #EECBB1",
"8X c #E1E1BD",
"9X c #9789C6",
"0X c #8C90D0",
"qX c #A393C8",
"wX c #90A8D3",
"eX c #B1AED2",
"rX c #8F96EC",
"tX c #96ABE5",
"yX c #8BB6EA",
"uX c #96BAE9",
"iX c #8CB2F4",
"pX c #A9B6ED",
"aX c #A19EE2",
"sX c #CEB9C5",
"dX c #C2B8E1",
"fX c #BCC6DA",
"gX c #96C6F3",
"hX c #ADC4E5",
"jX c #A9C6EA",
"kX c #B3C5E3",
"lX c #B4CAE5",
"zX c #BBCBE3",
"xX c #B6C8E8",
"cX c #A7C7F5",
"vX c #B7CAF1",
"bX c #B9D3F2",
"nX c #C7CADD",
"mX c #D4CDD3",
"MX c #F6DBC7",
"NX c #E6DCD6",
"BX c #ECD1C9",
"VX c #FCE4CC",
"CX c #EBE3D8",
"ZX c #F4E3D3",
"AX c #F8E9D8",
"SX c #FDF2DC",
"DX c #EEE1CE",
"FX c #C4CBE3",
"GX c #C6D4E6",
"HX c #C7DAF6",
"JX c #D0D1E6",
"KX c #F5EDE1",
"LX c #FEF7E7",
"PX c #F5F3ED",
"IX c #D3E1EE",
"UX c #A2C598",
/* pixels */
"                                                                                                        * s N x j O             ",
"                                                                                                      - a z z z -               ",
"                                                        z c c k =                                   & s x h p =                 ",
"                                                      a z x z j =                                 - b R } ' ! :                 ",
"                                                    i h h x a =                                 * v R S.XX.X@X%.                ",
"                                                  > ! _ S.W 0                                 > d W F.XXtXaX>X#X                ",
"                                                i R G.XXP.M.y.          * f                 & v E S. X)._.].9XL.6.3.2.          ",
"                                              : z ~ G.9XC.(.P.        / ( ~ I               * n ~ K.0XQ.Y.T.P.K.6.3.3.2.        ",
"                                              : Z U [ }.H. X*X#X$.  7.%X;X#X .              k H  .:X].Y.T.n.M.  5.3.$.1.1.      ",
"                                            X S U 5.;.D.f.G.+X8.2.9.7X6XBX;X .            > Z [ +XeX'.Y.n.z.      Y Y 1.<.8.    ",
"                                            * b | }. X^.U.D.G.| 7.2XSXSXVX1X .          $ j D ' oXtX_.T.c.k.        1.8.8.9.    ",
"                                          - v _ K.9X[.Q.B.g.A.' 7.7XSXSXMX-X .          i R _ XXwX_.W.T.M.k.        2.8.8.8.    ",
"                                        & v _ F.0X'.W.Y.T.m.Z.d.|.3XJXBX$X6. .        a x _ J.0X_.R.Y.T.b.l.          2.<.<.<.  ",
"                                      = s ~ G. X).E.Q.`.(.m.l.        |.' [ I       * R _ K.0X(.W.W._.(.V.l.          1.Y Y <.8.",
"                                      : Z  .:XaX_.E.].uXiXP.M.        ! ~ n I N - > v ) K.0X(.W.Q.].pXiXC.z.            M Y 2.9.",
"                                    . l P 5..XrX`._.jXzXpXaXP.        & p f n n a b E K.qX'.E.W.].pXFXpX^.j.            B $.2.9.",
"                                    & C [ :XwX]._.yXhXnXFXeXqXP.      - c c b b s D | XX).R.R.'.jXGXvXpXB.j.            { 1.<.<.",
"          S ,.,.H / ,.7.9.8.{ I l * d _ G.qX/.].yXjXzXGXFXFXpXrX      : c n v b Z ( @XeX_.R._.yXGXGXvXrXN.j.            <.1.Y Y ",
"          2 ,.,.[ 4.2X6X6X4X8.Y x v E A.9X).'.].hXnXxXxXxXxXpXrXC.    : C n f x L ( XXwX_._.uXkXFXzXcXrXV.j.            2.1.I M ",
"          S H H %.8.2X6XSX6X;XY B E S. X(._.].cXzXnXkXhXzXvXpXrXC.    : C n m ..' }.0X].].yXkXnXzXxXcXiXV.j.              1.I M ",
"            ; G U &X6XSXDX3X#XY K ] XXwX'.{.hXfXkXkXkXlXFXvXiX).C.    = k c B  .F.0X(.`.uXlXzXzXlXlXvXpXB.j.                Y Y ",
"                      CXfXoX| I T | XX].].gXnXnXkXhXkXxXFXpXiX).C.    % s n ] L.P.(.`.].kXnXkXkXlXlXvXtXC.j.                1.1.",
"                        y e D I { #XqX].yXjXlXfXkXhXkXxXvXvXcXrXC.      p E G. X/._.gXhXzXkXhXkXGXzXcXrXV.j.                <.2.",
"                        . & f ] @X:X/.'.yXjXlXzXkXhXkXlXzXxXpXrXC.    * g E S.0X'.{.hXfXfXkXhXhXzXzXcX].V.j.                  9.",
"                        $ p h } K.wX_.W._.yXfXnXkXhXlXlXGXhXiXV.m.    * g E S.P.yXgXlXzXlXkXkXkXkXvXFXpXB.z.                    ",
"                        a z M } P.).E.Q.'.uXkXfXkXhXkXlXzXjX].(.m.Z.7 p m ..S.9XyXgXhXlXlXfXkXkXxXpXHXpXC.k.                    ",
"                      > s m M } g.(.W.'.hXfXkXhXhXhXkXhXhXxXvXuX~.h.0 f m ..G.P.(.`.jXzXzXkXhXkXFXFXiX'.V.j.                    ",
"                    o % s M M } H.).'.gXzXnXkXjXhXkXkXhXhXxXbXlXwXD._ ~ ] L.L.H.(._.jXzXfXkXhXhXGXzXpX).V.k.                    ",
"                    X $ % s g _  XtXgXjXzXfXkXkXkXkXhXkXkXhXjXfX,X@XJ.D.K.G.F.XXeXgXjXhXkXhXkXhXjXhXGXpXP.Z.        = j N K     ",
"                    - 0 r t E _ :XeXjXbXhXkXGXmXmXnXFXnXGXGXkXsX*X@X0X^.P.K.G..XfXlXjXxXhXkXkXhXjXjXJXFXaX0X        = l K K     ",
"                  = z _ g.g.D.L.*XsXkXgXjXnXCXZXCXNXNXCXCXNX7X$X@XXX].Q.B.K.@X*XnXjXhXhXkXkXhXhXxXlXhXkXJXdXrX      = k N K     ",
"                * R _ J.^.(.P.XX$X<XdXkXzXmXZXVXDXDXZXAXSXZX-X6.}.H.Q.R.B.F.5.$XfXjXzXGXnXnXnXnXJXnXxXxXHXpXP.z.    = k N K     ",
"              * g _ J.0X(.W.(.0XXX@X,XmXNXCXZXVXZXZXZXAXSXVX2X-X:X9X`.Q. XJ.G.XXuXjXJXCXCXNXNXNXNXNXNXxXiX_.V.j.    = j c K     ",
"            . : L |  X'.W.R.R.).F.| &X4XAXKXZXDXZXZXAXZXDX6X2X$X.X0XW.Q.9XF.G.XXeXHXCXAXZXVXNXZXVXAXZXGXpX(.m.j.    % j L K     ",
"            . C P 5.qX].W.R.R.~.H.L.&X5XAXPXZXMXDXAXKXZX7X=X@XXX/.Q.R.W.B.F.| $XmXNXZXZXVXVXZXZXVXZXAXCXJXpXC.j.    = l N K     ",
"            & S 5.$XeXyX_.E.Y.(.H.| &X5XZXKXDXZXZXCXZX5X*X@XH.^.'.`.`.'.g.F.@X*XMXAXAXAXZXDXZXZXZXAXVXAXKXmXaXC.    > a N K     ",
"          & p ~ J.eXfXlXiX`.R.~.S.L.&X5XAXPXAXZXKXZX6X=X@XJ.V.(.gXcXgXuX9XD.L.;XMXSXAXCXZXZXZXZXZXZXZXAXAXNXmXaXM.q.0 a N K     ",
"        % v E F.0XpXGXGXbXiX`.(.H.L.*X5XLXPXKXAXAXBX*X@XH.B.(.].jXbXbXgXB.D.+X-XVXLXAXAXDXNXZXZXZXZXZXZXVXAXAXdX0XZ.9 i c K     ",
"      * p R F.qXxXHXHXHXIXHXgX].H.L.;XMXLXPXLXLXMX1X}.H.~._.gXbXIXHXgX{.B.F.+X-XSXLXLXKXZXZXZXZXZXZXCXZXSXSXLXKXnX Xt i M M     ",
"    O - c | 9XtXbXHXbXbXHXGXgX/.A.G.;X6XLXPXLXMX-X+X:XK._.`.cXHXIXGX].!.B.S.+X-XVXLXKXSXAXAXAXAXAXZXZXZXMXDXZXDXNX,Xy * m I     ",
"    . l P +XaXiXcX          wXD.S.} 6.          8.9.1XBXpXgX        (.N.A._ | #X    SXKXLXLXLXLXLXSXSX6X2X3X3X3X3X%X/ * c  .MXLX",
"    & S 5.,XtX_.            y ) E ..[           1.=XMXMXIX            s.W ] { {       AXLXLXLXAXCXMX8X8X%X-.:.UX7.,.1 * B L.7XZX",
"  % p ( :XeXwX~.          < 8 1 z I ( =.       .:X:XmXmX              0 b n I             AXDX3XoX,X3X|.:.X.o.*.,.I : * x | 3X3X",
"& a E G.aX/.U.a.      X # # . & f Z F &.@.%.T  .J.0XeX                * h N M                 OX>.y *.o.o.X.X.2 J z - a c =.|.UX",
"g n A.H.).(.h.      + , q q , ; g N F F #.#.P ] D.N.                  * f x B                     1 3 e =.=.&.A 3 j a j C A 2 *.",
"] G.9XrX_.          8 < X.X.u 1 E E ! / e ^ D ~ d.                    1 n Z L                     # # 2 =.,.=.( &./ G G *.*.F Z ",
"H.qXuXjX            # 3 *.*.e u i.d.W W 9 6 i.0 Q G                 :.&.G G D [                   q , 2 =.1.<.7.%X:.7.4.|.|.4.$.",
"aXaXbXIX            o 2 =.=./ t f.f.F.F.A.h.a.f.( %.0.-.-.:.-.-.-.-.:.*.( G A H =.7.-.:.:.-.7.7.*.q q e =.0.4.&X3X3X9.%X3X3X6.1.",
"pXkXCXPX            o 1 H [ U ;. XoX:X>X.XeXwXXX:.,.@.#.@.@.+.@.@.&.*.*./ G Z A @.&.&.+.+.@.=.=.3 < < 2 &.=.4.%X$X*X5.5.<X<X5.=.",
",XmXZXSX            O ; C H H 5.}.,X>X7X1X>X,X,X%X;.*.2 o.F ^ ^ ^ ^ o.2 F G S G +.e *.e e &.&.^ 3 q 3 2 &.=.=.5.+X+X5.;.+X+X=.( ",
"8.;X4X6X4X          1 # ; 1 G [ 4.9.*X%X=X$X=X%XOXy r 8 9 9 7 7 9 7 , ; a b R W 9 8 7 7 7 9 0 9 5 5 u e =.=.! D ~ ] S b ~ ] D b ",
"T Y #X&X&X8.8.2.8.4.S ; . + 1 H P $.5.@X5.4.4.4.>.w a.i.d.d.d.d.f.s.0 = s E S.S.d.d.t s.s.d.t d.s.h.u 2 &.=.Z f g g f f m g f i ",
"K L ] [ [ <.2.2.8.,.H : $ + = C Z D D S ! D D D S t U.0XXXXX.X.XeX.X' D Z ( .XeX:X:X.XXXXXXXXX:XqX0XU.2 2 J L B m M B N B B g f ",
"p p p h H ,.1.<.1.{ H b > 0 > & d p p i i i * p k ( oXsX>X>X>X>X>X>X%X4.,.5.,XsXsX>X>X>X>X>X,X>XmXoX;.F A J I L V K K K K V n b ",
"& & % = : S D D S C l ! t t R v p l S S b l p s L ,.-X5X4X-X<X%X$X$X=X-X-X-X=X=X$X%X<X7X4X-X-X=X3X,X7.U Y I V L I I I M m h ! u ",
"      o . + * * $ $ i R f.g.t R v c G / G S a s Z 1.-X6X4X2X+X4.5.7.2X4X6X4X%X5.5.4.*X4X4X4X&X5.5.+X6.8.6.6.] I H H N B n / OX}.",
"        X X $ $ + + $ r h.!.h.f.R c G @.^ H l p p ,.=X6X7X,X' k s [ <X5XBX,X;.k s ( $X1XBX1X5.S b ( 5.=X1X<X5.H &.+.Z c / }.mXAX",
"        8 @ o . o o . 6 p.I.I.h.t S G +.=.^ S b ~ @X>XmXeXXX1 i z ' >XmXsXXX/ * p ' >XsXmXoX` : p _ $XmXnXfXOXF F F S ~ }.,XAXLX",
"@ e.t.l.y.5 @ . @ @ . # , a.I.!.h.d.b Z / *.F ( 7.>XnXuX/.U.2 J 5.1XdXhX/.U.u J ,.*XmXhXwXU.y A [ +X3XnXyX/.o.#.A c 0 >.oXBXAXLX",
"@ e.x.x.t.e.4 @ 6 w.4 o X 6 v.T.p.s.Q Q t o.*.%X1XmXeX[.I.w &.-.1XmXpXwXI.p.e =.=XBXpXwXI.I.u *.%X7XmXuX!.p.O.3 l Q 9 H.oX8XDXSX",
"    c.x.x.t.6 6 y.e.e.4 X 6 t.c.a.u.i.i.u.f.:.,XJXvX^.p.6 3 ;.oXJXzXwXI.w 3 *.|.mXGXtX~.a.< F |.mXJXuX~.a.8 < ; > i.u.h.f.>.    ",
"      b.x.x.e.5 t.c.t.y.6 w.y.y.u.y.j.r.q.d.|.3XHXpXN.r.4 1 ;.mXIXcX(.t.4 ; ;.,XGXbX'.p.5 % F |.mXHX].v.e.@ o 4 w.e.l.l.e.5     ",
"                x.x.x.l.l.t.y.  Z.x.x.z.q.t |.3XbXcX(.l.w.r ;.3XGXjX).c.q.r ;.|.nXbX).n.e.9 / %XmXHX].n.t.w.5 5 y.y.e.e.y.l.    ",
"                x.x.b.b.b.x.      b.b.x.q.t |.3XGXcXC.l.r.r :.3XGXvX_.b.r.t >.%XmXvX].n.l.i.>.:.mXGX].n.c.r.5 6 y.y.e.w.y.l.    "
};
