/* XPM */
static char *_3d521ac7f2349c58312608c638b57d1VoOEc6kWguyW20RB[] = {
/* columns rows colors chars-per-pixel */
"32 32 168 2 ",
"   c black",
".  c #00000A",
"X  c #00031E",
"o  c #000424",
"O  c #00072D",
"+  c #00092B",
"@  c #01112B",
"#  c #000135",
"$  c #000B33",
"%  c #00003C",
"&  c #001432",
"*  c #011238",
"=  c #011A3E",
"-  c #00004A",
";  c #001144",
":  c #001249",
">  c #021C4A",
",  c #000054",
"<  c #000E52",
"1  c #000B5A",
"2  c #001052",
"3  c #001956",
"4  c #00175A",
"5  c #001B5B",
"6  c #02224E",
"7  c #072254",
"8  c #002E54",
"9  c #04255A",
"0  c #000065",
"q  c #000B63",
"w  c #001760",
"e  c #001C64",
"r  c #00126A",
"t  c #001E6C",
"y  c #000B77",
"u  c #001275",
"i  c #001C74",
"p  c #001E7D",
"a  c #052B62",
"s  c #00216E",
"d  c #062C6A",
"f  c #082A6C",
"g  c #033067",
"h  c #00376F",
"j  c #003E69",
"k  c #002474",
"l  c #082E71",
"z  c #00247B",
"x  c #00297E",
"c  c #043171",
"v  c #083476",
"b  c #033D73",
"n  c #053579",
"m  c #003E7B",
"M  c #001785",
"N  c #001D83",
"B  c #00158F",
"V  c #001D9C",
"C  c #002582",
"Z  c #002A83",
"A  c #002788",
"S  c #002B8B",
"D  c #0A3782",
"F  c #0A3B84",
"G  c #00358B",
"H  c #053B8B",
"J  c #0A3E8B",
"K  c #002292",
"L  c #002D93",
"P  c #00249A",
"I  c #002F9A",
"U  c #003195",
"Y  c #023C96",
"T  c #00329C",
"R  c #023C9C",
"E  c #0025A2",
"W  c #002BA3",
"Q  c #002FAA",
"!  c #0034A2",
"~  c #003DA3",
"^  c #0034AC",
"/  c #0139AC",
"(  c #0035B4",
")  c #003BB4",
"_  c #0036BC",
"`  c #003CBC",
"'  c #024482",
"]  c #0C4395",
"[  c #004B97",
"{  c #0C459B",
"}  c #0C499D",
"|  c #005597",
" . c #01549B",
".. c #0045A3",
"X. c #004AA7",
"o. c #0E4AA4",
"O. c #0048AE",
"+. c #0F4DAB",
"@. c #104DAD",
"#. c #0156A1",
"$. c #0057A8",
"%. c #0D52AE",
"&. c #0059A8",
"*. c #0041B3",
"=. c #004DB1",
"-. c #0142BE",
";. c #004ABE",
":. c #114FB1",
">. c #0F52B1",
",. c #005CB1",
"<. c #0056BB",
"1. c #005BBA",
"2. c #0D5BBB",
"3. c #1052B4",
"4. c #1155BA",
"5. c #1158BE",
"6. c #0063B7",
"7. c #0064BB",
"8. c #0068BC",
"9. c #0036C1",
"0. c #003DC2",
"q. c #003FC8",
"w. c #0041C4",
"e. c #044AC5",
"r. c #0044CA",
"t. c #004BCB",
"y. c #0055C4",
"u. c #0153CC",
"i. c #005DCC",
"p. c #105CC2",
"a. c #0053D3",
"s. c #005AD4",
"d. c #005DD9",
"f. c #0068C2",
"g. c #006CCA",
"h. c #1162CD",
"j. c #0061D4",
"k. c #006CD6",
"l. c #0063DB",
"z. c #0068DD",
"x. c #006CDF",
"c. c #006EDF",
"v. c #1167D4",
"b. c #116AD9",
"n. c #0072D3",
"m. c #0078DF",
"M. c #006DE1",
"N. c #006CE3",
"B. c #006AE5",
"V. c #106FE0",
"C. c #0072E5",
"Z. c #0075E7",
"A. c #0079E3",
"S. c #0073EA",
"D. c #007AEA",
"F. c #0079ED",
"G. c #007DEE",
"H. c #1072E5",
"J. c #1274E9",
"K. c #007DF2",
"L. c #0081E9",
"P. c #0081ED",
"I. c #0081F2",
"U. c #0084F5",
"Y. c #0086FA",
"T. c #0089FA",
"R. c #008AFF",
"E. c #008DFF",
/* pixels */
"T.N.^   i w.w.r.w.; t r.r.w.r.w.r.r.e 2 _ 0 j L.E.G.t.0 X ) r.w.",
"Z.d.-.[ X.w.w.` T x Z ! _ ) T ` -.! i Y d.R H x.F.x.w... .-.r.0.",
"t.0.t.D.x.0.r.U * ( ! + / ! O ^ / + A d.K.j.` w.t.w.0.x.D.t._ _ ",
"_ _ t.N.l.q.r.! i S A Z j.i.Z ) ) C ( a.N.s.0.0._ _ w.l.N.t.s.z.",
"w.w.w.0.0.w.0.r.w.3 r t.F.Z.w.0.w.w.w.w.0.w.w.w.w.w.w.w._ _ z.U.",
"_ ` w.q.I z ` d.N.~ V w.j.d.r.w.r.r.r.w.0.` w.w.w.r.w.r.( k =.B.",
"t.t.w.r.U # P z.U.l.w.0.0.0.-.` ` 0.` ` w.w.w.w.` ` w.r.) ; p _ ",
"G.l.w.0.` P % $.T.Y.z.q.0.r.w.k z _ x k w.r.w.r.Z t w.r.` ^ y # ",
"G.j.W ) a.a.' &.D.G.z.w.^ ) -.z G u.G 1 ! w.w.^ k e T ` r.d.=.j ",
"t.S # ^ N.I.P.x.t.t.t.` e s w._ i.F.s.B $ / ) ; T ) # M a.F.P.A.",
"l.1. .) d.Z.F.l._ _ w.w.Z L r.E <.T.K.y.z N S k S ~ | O.t.N.U.R.",
"I.U.D.u._ w.w.w.0.w.w.w.w.w.w., ' I.T.Z.w.q 5 -.u j D.N._ 0.z.U.",
"z.N.z.t._ 0._ 0.w.r./ C _ ( x #.f.l.N.l.r.1.7.w.W R z.d._ _ u.l.",
"0._ ` w.w.w.w.w.w.w.L $ *.! & n.K.0._ _ 0.C.F.t.0.w.0.` w.w.w.w.",
"0.0.0.w.w.r._ 0.w.x r ~ C.k.! u.d.r.0.0.w.s.s.w.w.w.0.w.0.r.d.C.",
"w.w.w.w.` ) t.u.` e p t.S.C.r.9.( ) ` w.w.0._ q.w.w.w.w.0.Q k.T.",
"r.w.w.r.K > k.N._ ( w.w.u.t.w.r./ ; ! r.w.w.r.w.w.r.w.r.` % &.R.",
"! ) w.^ G | L.K.i.*.( ` _ 0.w.) A e / r.w./ ^ w.) ! w.( L ' g.Y.",
"  T 0.%  .I.U.Y.G.b 0 0.w.r.w.s 5 -.w.w.w.s e w.Z 3 w.M 8 m.T.U.",
"x C G  .g.S.x.N.z.Y ..z.a.( A x ! r.r.w.w.T Z S Z x A [ 6.C.N.l.",
"r.N 8 A.S._ 0.w.0._ l.I.d.K o ! r.w.w.w.w.r.^ o T ) o 7.K.t._ w.",
"r./ R d.s._ _ q.q.q.a.z.a.) T r K r.L S r.T k G ` 0.I <.l.0.s.Z.",
"w.w.w.0.0.w.w.-.) w._ ( ` r.w.n c ) s e ) k e w.r.w.r.q._ _ z.I.",
"r.q._ q.r.w.r.! 5 -./ < ^ w.w.N.8.9 L T 3 L ` w.r.r._ q.r.q.u.d.",
"! t.i.) ) w.` Z 4 ! L 4 / q.r.S.k.5 ^ ` 4 L -.0.( *.s.;.^ w.` P ",
"  7.S.b N w.w z ( w t ` 0.q.e.t.e.` 0.q.` t e ` y m U.&.- 0.! . ",
"7 #.f.' x L f Y e.D J p.e./ T / -.e.e.e.e.J ' s.Y b f. .f U Z a ",
"3.n = @.J + { 4.:.:.:.:.4.J X ] 4.:.:.:.:.@.5.V.h.] @ J +.* v 4.",
"b.>.d d v F @.5.:.' ] :.4.o.' o.4.4.] v @.F } H.H.h.D a v v } 4.",
"H.v.+.6 v 4.3.3.o.> a @.:.:.:.>.3.@.9 9 3.d g b.J.b.5.l 6 @.4.:.",
"h.4.4.5.4.3.4.] d ] F f @.o.l o.o.f v >.v.%.{ 5.h.5.4.2.5.3.3.3.",
"@.+.4.H.b.3.4.n   o.{   { ]   { {   ] h.H.h.3.@.@.@.@.b.H.4.@.3."
};
