/* XPM */
static char *cbd111c6f36d49ea8f902a5a8504f4dfDPUDbrj16ALIfPlt[] = {
/* columns rows colors chars-per-pixel */
"64 64 212 2 ",
"   c #010101",
".  c #000D00",
"X  c #01051E",
"o  c #010B2B",
"O  c #01102E",
"+  c #000133",
"@  c #020836",
"#  c #011435",
"$  c #02153A",
"%  c #03263A",
"&  c #000044",
"*  c #000C44",
"=  c #00024B",
"-  c #000C4C",
";  c #001245",
":  c #021B43",
">  c #00144D",
",  c #021C4C",
"<  c #000253",
"1  c #000B54",
"2  c #00065E",
"3  c #000D5B",
"4  c #001553",
"5  c #011A54",
"6  c #00145D",
"7  c #001B5C",
"8  c #012549",
"9  c #032354",
"0  c #002C53",
"q  c #04255B",
"w  c #012C5C",
"e  c #000363",
"r  c #00016C",
"t  c #000B69",
"y  c #001364",
"u  c #001C64",
"i  c #00166C",
"p  c #001C6B",
"a  c #000175",
"s  c #00027A",
"d  c #000C78",
"f  c #001376",
"g  c #001C74",
"h  c #00137B",
"j  c #001C7A",
"k  c #042462",
"l  c #032B63",
"z  c #00226C",
"x  c #052D6B",
"c  c #092C6E",
"v  c #013364",
"b  c #05326C",
"n  c #00386D",
"m  c #002374",
"M  c #022C73",
"N  c #092E72",
"B  c #00257B",
"V  c #012C7C",
"C  c #082F7D",
"Z  c #083375",
"A  c #033A76",
"S  c #05347B",
"D  c #08367B",
"F  c #033B7C",
"G  c #09397D",
"H  c #00447C",
"J  c #001383",
"K  c #001B85",
"L  c #001B8C",
"P  c #001E93",
"I  c #001F9F",
"U  c #002583",
"Y  c #002984",
"T  c #00248A",
"R  c #002B8B",
"E  c #023483",
"W  c #093780",
"Q  c #003C84",
"!  c #093B84",
"~  c #01358D",
"^  c #003C8A",
"/  c #0A3E8B",
"(  c #002493",
")  c #002D93",
"_  c #00229A",
"`  c #002D9C",
"'  c #003295",
"]  c #013A92",
"[  c #0B3F90",
"{  c #00329C",
"}  c #013A9D",
"|  c #0026A2",
" . c #002DA3",
".. c #002DAC",
"X. c #0034A4",
"o. c #003BA3",
"O. c #0035AB",
"+. c #0039AC",
"@. c #002BB4",
"#. c #002EBA",
"$. c #0035B3",
"%. c #003BB4",
"&. c #0035BC",
"*. c #003CBC",
"=. c #014483",
"-. c #02438C",
";. c #0B408D",
":. c #004C8B",
">. c #054796",
",. c #0B4293",
"<. c #024D93",
"1. c #0C469B",
"2. c #004C9D",
"3. c #0D489D",
"4. c #005194",
"5. c #00549C",
"6. c #0043A3",
"7. c #0B44A2",
"8. c #004CA2",
"9. c #0E4AA3",
"0. c #0144AC",
"q. c #0A47AC",
"w. c #004BAE",
"e. c #0F4EAB",
"r. c #104BA6",
"t. c #104EAC",
"y. c #0155A2",
"u. c #0951A6",
"i. c #0059A6",
"p. c #0052AC",
"a. c #0D51AC",
"s. c #005CAA",
"d. c #1050AE",
"f. c #0044B3",
"g. c #0944B7",
"h. c #004AB3",
"j. c #0E4FB5",
"k. c #0141BD",
"l. c #004BBB",
"z. c #0A4BBC",
"x. c #104FB0",
"c. c #0054B4",
"v. c #0F53B4",
"b. c #005BB5",
"n. c #0053BC",
"m. c #0F51BB",
"M. c #005BBD",
"N. c #0E59BA",
"B. c #1052B3",
"V. c #1155BA",
"C. c #1059BE",
"Z. c #0060AE",
"A. c #0062B4",
"S. c #0064BB",
"D. c #0068BE",
"F. c #0036C0",
"G. c #003DC2",
"H. c #003FC9",
"J. c #0042C4",
"K. c #014AC5",
"L. c #094EC3",
"P. c #0044CA",
"I. c #004CCB",
"U. c #0053C3",
"Y. c #005BC3",
"T. c #0F5DC3",
"R. c #0053CD",
"E. c #005BCC",
"W. c #095CCE",
"Q. c #105CC4",
"!. c #115FC8",
"~. c #0047D1",
"^. c #004CD2",
"/. c #0054D2",
"(. c #005BD4",
"). c #0055D8",
"_. c #005DDA",
"`. c #0065C2",
"'. c #0F60C7",
"]. c #006BC5",
"[. c #0062CC",
"{. c #0E63CA",
"}. c #006CCC",
"|. c #1062CB",
" X c #0071CC",
".X c #0063D3",
"XX c #006CD3",
"oX c #0E6AD7",
"OX c #0064DB",
"+X c #006BDC",
"@X c #1165D2",
"#X c #1169D7",
"$X c #106CDB",
"%X c #0072D3",
"&X c #0074DC",
"*X c #0079DD",
"=X c #0065E1",
"-X c #006CE2",
";X c #006DE9",
":X c #116FE1",
">X c #0072E5",
",X c #007AE4",
"<X c #0075EA",
"1X c #007BED",
"2X c #1172E5",
"3X c #1175EA",
"4X c #007DF1",
"5X c #0081ED",
"6X c #0082F4",
"7X c #0085F6",
"8X c #0085F9",
"9X c #008AFD",
/* pixels */
"9X7X1XOXJ.( &   = T *.P.J.P.P.~.P.%.z X ; R *.~.P.P.J.J.P.P.J.J.P.P.~.k.Y ; + i ..@.s = 8 4.*X7X9X9X7X>X_.%.K +   1 { G.P.P.J.J.",
"7X6X<X_.J.` k $ z ' *.P.J.J.P.J.J.O.m ; u Y *.P.P.J.J.J.J.J.J.J.J.P.P.%.Y 4 5 Y %.*.U u 0 4.&X8X9X9X6X>X(.*.( 6 : z X.J.P.P.J.J.",
"1X<X-X(.J.O.Q F -.6.*.J.J.J.J.*.%.{ B p m R O.*.G.G.*.*.+.%.k.*.J.*.*.X.B u M } U.I.} V A 2.XX1X6X6X<X+X).k.o.Q F -.0.G.H.G.G.*.",
"-X+X_.I.J.l.b.b.b.l.J.J.P.J.%.o.~ R R ) R Y Y ' $.%.%.O.) ) +.*.*.%.' Y j U } n..XOXn.6.] 0.E.+X-X-XOX(.K.k.l.c.b.b.l.J.H.G.G.*.",
"E.R.K.J.J.R.+X&X+X.XK.F.H.*.+.R 7 k { +.o.R 7 u ` $...) 6 u X.%.%.X.z - d { l.OX<X<XXXU.%.%.K.R.(.R.I.K.G.K.[.+X&X&XE.J.&.&.&.&.",
"J.G.F.*.J.(.<X1X<XOXK.F.H.G.X.V * 6 X.%.O.R - 7 } k.f.{ 5 4 { %.%.{ 5 * h O.R.-X4X1X-X/.J.&.G.G.J.J.G.G.F.K.OX<X1X>X(.J.G.*.P.K.",
"G.G.&.G.J./.-X<X-XOXI.H.P.G.O.) i i ) { ` Y p E l.E.E.w.V g X.%.%.X.M g _ %.^.OX>X>XOX).J.F.&.G.*.*.F.&.&.K._.-X<X-X).P.K.R.(.OX",
"*.&.&.*.J.R.OXOX_./.P.H.J.G.%.O.( U U B B U R 0.[.+X+XY.2.( $.%.*.%.{ ` O.*.I.).OX.X(.I.P.G.G.*.&.*.&.G.G.J./.OXOX_.I.P.).OX>X,X",
"J.G.G.J.J.J.I.K.K.P.P.J.J.J.G.G.%.X.m > 3 U O.R.>X1X<XOXK.$.$.G.k.J.*.%.*.J.J.J.I.K.P.J.J.J.*.J.*.J.G.J.G.J.P.K.K.P.G.K._.>X1X6X",
"k.J.J.J.J.G.G.F.&.%.%.%.*.J.I.^.^.l.Y 5 2 L &._.>X1X<X-X/.H.G.G.J.P.P.P.P.J.J.*.G.*.*.J.J.J.J.J.J.J.J.J.J.J.G.G.$.&.@.f.E.+X1X8X",
"&.*.*.G.J.J.G.*.O.` ) ' $.P.)._.=XE.6.Y J _ *.^.OX-X+XOXI.H.H.P.P.P.P.J.P.P.P.G.G.*.G.G.*.J.G.J.P.P.P.P.J.J.G.G.&.O.( ' h.E.-X1X",
"F.G.G.G.G.J.P.*.O.Y u g _ J.).;X<X>XY.+.....G.I.R././.R.P.G.J.J.P.P.J.P.P.P.J.G.G.*.G.J.J.J.J.J.J.J.J.J.J.J.P.G.*. .g u ] h.).=X",
"J.J.J.J.J.J.P.G.X.B * 1 P *.(.<X4X1XOXI.G.&.G.J.J.J.J.J.J.J.G.J.J.G.J.G.J.G.J.k.G.J.J.J.J.J.J.J.J.J.J.k.J.J.P.P.*.{ 7 ; m { k.K.",
"(.(.R.I.P.G.P.J.+.Y y < a { U.&X6X7X<X+X).K.J.G.*.F.H.G.J.k.+.+.O.%.*.G.%.+.+.%.J.J.J.J.J.J.P.J.%.+.X.%.k.J.P.P.k.X.B 3 t J _ | ",
"<X>X+X(.I.H.P.G.%. .P a = z 2.}.6X9X8X<X+X(.K.H.H.G.H.P.G.*.' V B ` $.$.` U Y ' k.P.P.P.J.P.~.J.X.R B ) *.P.~.P.J.$. .L s r e e ",
"7X1X-X(.P.G.G.J.J.*.$.) 6 0 =.S.1X9X9X4X<X.XK.&.G.G.H.P.P.%.Y u u R $.*.R p 7 Y %.P.P.J.P.J.P.*.' z 5 B +.J.P.P.J.k.*.$.) p ; . ",
"6X<X+XE.f.@.%.G.~.^.I.h.E n :.S.>X6X7X4X<XOXK.*.$.%.*.k.J.%.U u z ] l.K.{ z 4 g X.k.J.J.J.J.k.+.R z 4 m ` %.G.J.J.I.^.I.w.^ v % ",
"<X>XE.h.' P ..J.^._.=X.Xb.i.s.`.+X<X>X>X+X(.K.$.X.' X.%.J.*.` Y ] w.E.(.h.~ i t U { %.k.J.*.X.) Y B B B U )  .$.J.).=XOX[.b.5.:.",
"(.R.6.Y 1 e _ *.(.;X<X1X*X&X%X.X(./.(.(./.R.P.$.Y p m ` %.J.$.*.l.(.>X&XE.f.P r < z X.k.J.+.B u R { O.) y < s  .J._.<X<X,X*X%X}.",
"I.J.o.V 8 q ( J.(.-X5X7X7X5X>X.XK.G.k.J.J.P.P.+.B 4 7 Y %.J.F.G.U.+X1X4X-X/.%.K - > R +.%.X.7 ; Y O.%.X.k , g  .J._.<X4X6X6X5X6X",
"(.R.c.2.=.^ o.J./.+X<X4X4X4X-X(.J.#.&.*.J.P.P.%.R z m ' *.G.@.$.l..X5X8X1X=XR.o.M 7 U ) ` R p u Y { o.6.=.=.] 0.J.).-X1X6X8X8X9X",
"-X+X.X].S.c.l.J.I.(.OX>X;X-XOX/.G.#.&.&.H.G.P.*.X.` ' +.J.G.I ( } `.5X9X8X4X-XU.o.U j f j U Y R U T ~ 2.s.S.M.l.J.K.(.-X<X6X9X9X",
"1X1X1X5X,X&XE.J.J.J.I.R./.I.I.K.J.G.*.G.J.J.P.J.*.f.k.J.P.%.J < b i.,X9X9X8X<XOXK.O.d = = g O.+.L i l 4.}.,X+X(.J.*.G.R.OX1X8X9X",
"1X6X6X6X6X>X(.K.F.&.*.G.*.G.*.G.J.J.J.J.J.k.*.k.G.J.J.J.G.+.m w A s.&X6X7X7X1X-X).%.~ z l ^ k.*.( i w 4.&X4X<X_.J.#.#.G.(.&X<X4X",
">X>X<X<X<X=X/.J.G.&.*.&.&.G.*.G.J.J.P.P.k.+.{ ` $.G.&.$.` ] -.4.s.`.XX<X<X<X-XOX^.J.w.y.y.w.K.*. .T E 8.XX>X-X(.J.&.&.*.I.(.+X-X",
".X(.OXOXOX(.I.J.G.*.*.G.*.G.G.G.J.J.P.P.%.' m B O.$.$. .g A y.D.XXXX(.(.(.(.(./.P.K.E.}.}.[.R.J.$...o.h.E._.).R.J.&.&.G.J.R.R.(.",
"P.K.J.K.K.P.J.J.G.J.G.J.J.k.J.J.J.J.P.J.O.Y ; 4 { %.O.( & v A.*X<X>X/.J.J.J.J.G.G.I.+X<X1X>XR.G.&.%.*.J.J.P.J.J.J.k.G.J.J.J.J.K.",
"&.&.&.&.&.*.*.J.J.P.J.J.J.G.G.G.J.J.k.%.` m 4 M w.K.l.o.7 A S.>X1X;XI.&.&.#.&.&.&.I.OX<X1X>XR.J.G.H.P.H.G.&.*.G.J.J.J.J.K.K.I.R.",
"G.*.*.*.G.G.*.J.J.P.P.P.G.&.H.G.J.%.{ R g g U 6.E.+X.XY.] ' n..X=X=XI.H.F.G.&.G.*.K.(.OXOXOXI.J.G.G.J.H.G.*.*.G.G.G.P.K./.(.OXOX",
"G.G.G.G.G.G.G.J.J.J.P.J.G.G.G.G.J.%.Y 7 3 j  .U.+X<X>X.Xl.%.J.K.R.I.P.G.G.G.G.G.G.J.I././.R.J.G.J.P.J.G.J.G.G.J.G.G.H.P.(.-X<X1X",
"J.J.J.J.J.J.J.J.J.*.*.k.J.J.K.P.J.O.B 4 3 T $./.>X1X1X-XI.G.G.H.G.J.*.*.*.J.G.J.J.J.J.G.J.J.J.J.J.J.J.J.J.J.J.J.J.*.&.k.(.>X6X7X",
"J.P.J.J.J.J.P.J.%.O.{ +.U.E._./.J.O.T B U X.G.).-X>X-XOX/.G.F.F.&.O.{ o.%.k.J.J.J.G.G.F.&.G.G.J.J.J.P.J.J.J.P.J.J.$._ o.M.&X7X9X",
"P.P.P.J.J.J.~.P.O.L e F M.+XOX_.G.@.O.X.%.%.G.I.(.(.(./.P.H.P.P.%.X.m m ' %.J.J.J.J.J.G.P.H.J.J.J.J.P.P.J.J.P.I.P.O.r z 2.}.6X9X",
"J.G.J.J.J.P.P.G.` g , H ].<X<X=XI.$.&.*.*.G.J.J.P.K.K.P.J.H.P.J.%.R 4 > Y %.J.P.J.G.G.J.J.G.J.G.J.J.J.J.G.J.P.J.*.` 4 0 4.}.1X9X",
"+.%.*.k.J.J.G.O.) S n 4.%X5X4X<X_.K.k.%.%.*.G.G.G.G.G.G.J.J.J.%.X.Y 4 u ' +.J.P.J.J.*.%.%.*.J.J.k.%.%.%.J.J.H.$.O.~ x H i.%X5X9X",
"Y ) o.*.G.*. .Y E -.Z.D.5X7X8X4X-XE.l.{ ` X.$.G.*.&.G.G.J.J.+.' U m B R X.*.P.P.P.k.X.' ' X.k.J.+.{ ) X.J.G.$.` T E <.s.}.,X6X9X",
"o u ' +.J.%.d 4 F s.%X5X6X8X9X8X6XXXy.x i J $.H.G.G.P.P.P.k.) p 7 m { %.*.J.J.J.P.k.R z u R J.J.X.B u Y *.J.| h 1 H S.*X5X7X7X7X",
"  ; B X.%.+.p 0 :.`.1X8X6X6X6X6X6X%X2.w 6 T *.K.P.J.J.G.J.+.B 5 7 Y %.P.J.P.P.J.P.%.R u 5 B +.%.' z 4 m +.%.) m w :.XX4X7X7X6X5X",
"7 z B ) ' } =.<.s.}.>X4X<X>X<X<X<X.X2.S E 6.E._./.K.*.%.X.' B m Y { k.P.P.P.P.P.P.*.X.Y B B ' { R m z B ) { ] -.4.A.&X<X<X<X>X-X",
"{ ) K B m ^ s.D.XX+X=XOXOXOXOXOX+XR.0.} w.Y.+X-XOXI.%._ B m Y ' X.%.J.P.P.P.P.J.J.J.%.O.' Y B m Y R ) Y g V <.s.].%X+XOX=X(.(.(.",
"J.%.( i , =.].,X<X-XR.P.J.K.K.I.K.K.&.*.U.+X1X1X-XI.O.J - > R +.J.P.J.J.P.J.P.J.J.J.P.G.%.' 4 > R X.O.` < 0 5.].,X>XOXI.J.J.J.K.",
"^.J.` j 5 =. X1X<XOXJ.@.&.F.F.&.*.F.F.P.(.-X4X<X=XR.+.K 4 5 Y O.*.P.J.J.*.%.%.*.k.J.P.J.+.) 4 5 ' %.*.X.e w i.%X4X<X/.G.*.*.K.I.",
"~.J.O.` U 2.[.+XOX_.G.#.&.&.G.G.G.H.F.P./.OX-X-X_.I.%. .Y B j K ` $.J.J.+.{ ' X.J.J.%.X.R B B Y O.*.J.%.T ~ w.[.-X=XK.J.P.E.OX-X",
"P.J.%.%.O.f.R.(./.I.J.G.G.*.G.H.H.G.G.P.P./.).(.I.P.J.%.$.' g y g ` G.k.' B m ) *.J.O.Y p m ' +.k.J.J.*.O.+.l.R././.G.J.R.+X>X1X",
"J.J.J.G.J.G.J.J.J.J.J.J.J.J.J.J.J.k.J.J.J.J.J.J.J.J.J.P.J.+.V q k R *.%.R u 7 B %.k.) p > m +.J.J.P.J.J.G.J.J.J.J.G.G.J.(.>X1X7X",
"J.J.P.G.P.H.G.&.&.G.J.J.P.J.*.%.+.+.*.k.*.$. . .+.*.P.P.~.J.6.-.=.^ o.' U z p V { { Y z m ~ *.P.P.P.J.J.H.H.H.F.F.&.&.K.(.>X<X6X",
"P.P.H.H.&.H.H.G.G.P.J.J.I.P.%.' B Y %.J.%.X.j g ' *.G.P.G.I.[.`.A.5.Q g U T R Y m m Y ' X.%.k.P.P.P.P.G.G.F.F.H.H.G.G.J.R._.=X-X",
"P.J.J.J.G.G.H.G.J.G.J.P.P.J.O.Y 4 k X.*.%.` 6 4 ` *.G.H.G.R.-X,X%XA.n = T X.+.' u > Y X.*.J.J.J.P.J.P.J.P.G.G.J.G.J.G.J.P.I.I.R.",
"$.f.J.K.R.K.k.k.*.*.J.J.J.%.{ B > u ` +.X.R 4 7 ` %.G.P.G./.;X3X&XS.n < ) $.*.X.u 4 C X.*.J.J.G.%.%.*.J.L.I.K.k.*.*.J.J.G.*.%.$.",
"T { h.E.OX(.h.{ X.%.J.J.%.` Y B m B Y ) R Y m Y X.*.G.H.G.^.=X;X+XY.^ j O.*.G.%.T g B ) X.%.G.G.O. .} l.(.OXU.h.' X.*.J.%...P J ",
"+ M p.XX<X&X2.N U  .J.k.R g g U {  .B i p U ` %.*.G.G.P.P.I.).)./.K.+.O.$.G.G.G.%.` U i g ) $.$.P j M p.>X<X].2.m h %.J.$.) y + ",
"  0 y.}.,X&X<.q i ( %.%.M > m ' *.%.B 4 u Y %.P.J.J.J.J.G.J.J.L.K.J.J.J.J.G.J.J.P.%.Y u 5 V f.*.( p w 4.&X,X].4.0 e O.*.X.Y :   ",
"  w 4.S. X].<.b m T X.' M q E } k.g.~ c N ] g.I.L.J.k.%.O.O.+.%.g.J.L.J.J.L.J.L.I.g.] N b ] n.K.X.C v :.].XXA.<.x i { X.' Y q % ",
"c G ;.5.s.i.<.=.W V U V N D [ q.z.z.1./ ,.7.z.L.L.z.q.{ Y Y { +.g.z.L.L.L.L.L.L.L.z.7.[ ,.9.W.W.j.,.G =.5.s.u.<.! C C Y V S G G ",
"r.1.! A v D 3.9.[ D 4 5 W 3.t.V.v.j.e.e.e.j.B.m.V.j.7.W 5 4 W 7.j.V.j.j.j.V.j.V.j.v.q.t.v.'.oXoX{.v.1.D v v ;.1.r.,.k > x ! 3.d.",
"Q.V.1.c # 5 ,.r.[ D : 9 [ t.V.V.B.t.B.d.t.t.B.B.V.B.9.G : 8 ! r.B.V.B.x.t.t.t.t.B.t.r.t.v.{.$X2X:X@Xv./ , @ Z / r.,.w $ c ,.B.V.",
"@X'.B.[ x q D ! W Z c G 3.B.V.C.V.d.1.,.,.r.B.B.V.B.r.;.D D ,.9.V.V.V.B.3.;.;.1.r.r.,.,.3.N.oX3X3X$X!.e.W k c Z ! G x b ! 3.B.C.",
":X$X|.x.[ N k k x G / 3.t.B.V.V.V.r.! Z D ,.d.V.V.B.d.9.,.1.r.d.B.V.V.t./ N b G r.r./ D F 9.@X3X3X:X#XQ.r.! N k l c G ,.r.t.B.V.",
"2X:X#XQ.t./ 9 $ q ! r.B.B.B.V.B.B.3.b , 9 G 9.V.V.B.d.d.d.d.d.d.B.V.V.r.D 9 9 Z e.e.D q q :.{.3X3X3X:X@XQ.9.D 9 $ w ,.e.B.B.B.B.",
"2X$X#X!.V.3.D b G 1.B.V.B.B.B.t.9./ x , q D ,.e.d.d.d.d.e.e.t.B.B.x.r.,.c 9 l ;.B.v.[ x l ;.T.$X:X:X$X@X!.x.,.D b G 9.V.V.V.B.d.",
"|.|.!.C.v.a.a.u.u.a.B.V.V.B.9.,.! Z S G D D D / r.t.r.3./ / 3.t.r.9./ Z c Z ;.d.!.!.a.>.! 1.C.|.#X@X|.!.C.B.a.u.u.u.B.V.B.B.B.B.",
"Q.C.V.B.B.C.{.{.|.Q.B.j.V.B.3.! q l ;.,.,.G q x ,.a.9.,.x x ,.r.r.,.x 9 b ;.a.'.#X#XT.v.9.r.B.C.Q.C.C.V.B.v.Q.{.{.{.V.B.B.x.x.B.",
"B.B.t.t.B.Q.#X$X#X|.v.x.V.t.,.Z $ 9 ,.9.1.! : , ;.9.3./ : , / 9.9./ , $ c 1.V.@X:X:X@XC.B.t.x.j.j.x.x.t.t.V.{.#X2X#XQ.x.x.t.x.B.",
"t.r.r.t.v.!.2X3X2X@XV.t.V.t.,.l   : 1.t.9.! O # / r.3.G O # ! 3.7./ # X N 9.Q.$X:X2X#X!.C.t.t.t.r.t.t.r.r.V.|.2X3X:X!.B.t.t.x.B."
};
