/* XPM */
static char *_25d12574c7a419bb8ad898066061e2emUxYM30jBX57Tyjd[] = {
/* columns rows colors chars-per-pixel */
"64 64 256 2 ",
"   c #010101",
".  c #0D0305",
"X  c #02020C",
"o  c #160602",
"O  c #010314",
"+  c #06071A",
"@  c #161113",
"#  c #260701",
"$  c #251704",
"%  c #30160C",
"&  c #392704",
"*  c #332512",
"=  c #060725",
"-  c #15082C",
";  c #0C1228",
":  c #14182A",
">  c #020636",
",  c #091438",
"<  c #151B38",
"1  c #221C29",
"2  c #18203B",
"3  c #312A2F",
"4  c #252638",
"5  c #4F0900",
"6  c #6E0800",
"7  c #442B03",
"8  c #4A3405",
"9  c #553C05",
"0  c #422F1E",
"q  c #493614",
"w  c #533D18",
"e  c #6E3101",
"r  c #4C3727",
"t  c #493935",
"y  c #5D4102",
"u  c #5A4319",
"i  c #674A08",
"p  c #73540E",
"a  c #664B18",
"s  c #73551D",
"d  c #5B4426",
"f  c #574435",
"g  c #644A25",
"h  c #6C5227",
"j  c #775826",
"k  c #7B5B2B",
"l  c #694D31",
"z  c #775838",
"x  c #7E6133",
"c  c #010345",
"v  c #03164A",
"b  c #151D45",
"n  c #010256",
"m  c #031858",
"M  c #151E55",
"N  c #1A2244",
"B  c #1A254A",
"V  c #0D2854",
"C  c #1A2955",
"Z  c #232A4B",
"A  c #2A3345",
"S  c #363649",
"D  c #222C55",
"F  c #252E5A",
"G  c #26315D",
"H  c #2A3458",
"J  c #363957",
"K  c #01126B",
"L  c #072766",
"P  c #182C65",
"I  c #1A3567",
"U  c #082D71",
"Y  c #043677",
"T  c #1B3775",
"R  c #222F64",
"E  c #273567",
"W  c #2A3564",
"Q  c #2D3A6B",
"!  c #343C64",
"~  c #313C6E",
"^  c #2C3B72",
"/  c #283C79",
"(  c #313E73",
")  c #313D79",
"_  c #483B4A",
"`  c #413F68",
"'  c #374359",
"]  c #374766",
"[  c #2B457A",
"{  c #344175",
"}  c #354E74",
"|  c #35437C",
" . c #39477A",
".. c #4F4855",
"X. c #775A44",
"o. c #66565A",
"O. c #725450",
"+. c #7A634D",
"@. c #454967",
"#. c #50526C",
"$. c #454A76",
"%. c #4A5979",
"&. c #575A77",
"*. c #6F5470",
"=. c #56627D",
"-. c #776868",
";. c #6F6B75",
":. c #77697C",
">. c #8A1300",
",. c #8A2902",
"<. c #8C3903",
"1. c #943106",
"2. c #932C13",
"3. c #953717",
"4. c #8D3529",
"5. c #8A4504",
"6. c #8F4B11",
"7. c #89551B",
"8. c #886016",
"9. c #914F2C",
"0. c #865A28",
"q. c #9B5636",
"w. c #A34E2D",
"e. c #A45938",
"r. c #86622A",
"t. c #846332",
"y. c #8A6639",
"u. c #956937",
"i. c #956E35",
"p. c #A7663A",
"a. c #823B52",
"s. c #8E4A50",
"d. c #A35E48",
"f. c #886648",
"g. c #946C46",
"h. c #977245",
"j. c #9B744D",
"k. c #8E6E57",
"l. c #9C7554",
"z. c #AB6949",
"x. c #B26C4B",
"c. c #A5784B",
"v. c #A37B55",
"b. c #A97A58",
"n. c #B17350",
"m. c #B47A58",
"M. c #89576D",
"N. c #8F6F71",
"B. c #A77B68",
"V. c #B37B62",
"C. c #A57C76",
"Z. c #AD825C",
"A. c #B7855A",
"S. c #AC8665",
"D. c #B28563",
"F. c #B98865",
"G. c #BC8C6B",
"H. c #AB847B",
"J. c #B98C76",
"K. c #B38A7C",
"L. c #A9947C",
"P. c #BA9171",
"I. c #BA937A",
"U. c #C1865E",
"Y. c #C38C66",
"T. c #C4926D",
"R. c #C99669",
"E. c #C9956D",
"W. c #C49373",
"Q. c #C99673",
"!. c #CD9972",
"~. c #CC9973",
"^. c #C39579",
"/. c #C69A7A",
"(. c #CEAA7E",
"). c #E0B27E",
"_. c #033B85",
"`. c #06308B",
"'. c #243D8C",
"]. c #03458A",
"[. c #184589",
"{. c #084893",
"}. c #174794",
"|. c #2B4686",
" X c #344583",
".X c #394681",
"XX c #3B4A85",
"oX c #344988",
"OX c #3D4D8C",
"+X c #21528D",
"@X c #3A548B",
"#X c #264994",
"$X c #2C4C93",
"%X c #344D93",
"&X c #3C4E92",
"*X c #314E98",
"=X c #275493",
"-X c #375794",
";X c #3D5194",
":X c #3E6191",
">X c #494F81",
",X c #404E8D",
"<X c #5A4B89",
"1X c #43528D",
"2X c #495889",
"3X c #56598B",
"4X c #404F91",
"5X c #425293",
"6X c #4A5492",
"7X c #465996",
"8X c #4C5B94",
"9X c #45559A",
"0X c #4C5C9A",
"qX c #555A92",
"wX c #665B87",
"eX c #625589",
"rX c #566489",
"tX c #51678F",
"yX c #5B6A8C",
"uX c #4C6394",
"iX c #546494",
"pX c #5B6C93",
"aX c #586996",
"sX c #686988",
"dX c #76678A",
"fX c #73718F",
"gX c #656692",
"hX c #617193",
"jX c #697596",
"kX c #787994",
"lX c #4759A0",
"zX c #836E89",
"xX c #8A7488",
"cX c #947685",
"vX c #9C7C84",
"bX c #847C98",
"nX c #A27F83",
"mX c #7D8297",
"MX c #938A92",
"NX c #A88582",
"BX c #AE9186",
"VX c #A69B99",
"CX c #B2A295",
"ZX c #B7A597",
"AX c #B6A6A0",
"SX c #C49680",
"DX c #CCA88C",
"FX c #CBB499",
"GX c #D8BC97",
"HX c #E1BB8F",
"JX c #CFBAA1",
"KX c #DDC098",
"LX c #E9C99B",
"PX c #F2CD98",
"IX c #DBC3A3",
"UX c #EFD0A3",
/* pixels */
"      ; B Q | &X5X9XlXlX0X5XoXT K > + q l g.V.W.Q./.~.~.Q.W.H.C.dXqX$X`.{.}.*X*X5X5X5X5X5X4X5X5X9X9X5XXX( D :     < G { OX9X0XlX",
"      : Z Q  .OX9X9X9X9X9X9X|./ m > O 7 l g.B.W.Q.~.~.~.T.T.J.vXzXeX%X{.{.}.*X;X,X5X1X5X5X5X5X5X9X5X4X,X{ F <     < G | OX5X9XlX",
"    O < D ~  .OX5X9X9X9X9X4XoXT m > . 8 z g.m.G.Q.!.~.~.Q.W.K.nXzXwX6X#X#X$X&X5X5X1X5X5X,X5X4X5X9X5X5XXX| G N + + < H | XX5X9X9X",
"< < 2 D W | XX5X5X9X;X&XOX.X) W D 4 * w z f.v.D.F.R.~.~.T.W.J.H.vXzXdXqXqX6X6X5X;X&X;X;X5X5X5X5X9X5X5X,X .~ D N N C W ^ | XXoXXX",
"D G G W { XX1X5X5X&XoX|./ ^ Q J S t w g k f.j.v.m.F.G.T.E.W.I.K.NXnXxXzXdXwXqX6X;X%X%X;X5X5X5X9X5X5X5XOXXX| ~ G G G W W Q ( ~ ~ ",
"{ ^ { | XX,X5X9X5XOX'.T L C H 3 f l h j k t.y.h.j.Z.A.G.W.W.^.^.^.BXNXnXxXdXgX6X;X#X*X;X9X5X9X5X9X5X5XOXXXXXXX| ( ~ W G D D D B ",
"XXXXXXOXOX5X9X5X5XoX/ L v , 3 r d h k r.r.r.k t.f.j.b.F.J.Q././.^.^.J.NXvXzXdXqX;X#X$X%X;X9X5X5X5X5X5X4X5X4X,XOX.X{ Q D 2 ; ; ; ",
"5X5X5X;X5X5X5X5XOX| E V - # & 9 a j x t.t.k k x y.h.v.D.G.T.Q.R.E.E.W.J.H.N.dXqX%X}.#X%X&X5X5X5X5X5X4X5X5X5X9X5X,X.X( D < X     ",
"9X9X5X5X5X4X&XXXXX~ J A 3 7 7 9 i s j x x t.t.y.f.h.l.Z.A.G.G.Y.Y.U.U.U.C.zXwX6X%X{.}.|.oXXXXXXXOX5X5X5X9X9X0X5X5XXX) W B , = = ",
"9X9X5X5XOXoX X{ ~ J _ t w 9 y e y u g h z f.g.j.Z.Z.Z.l.v.v.Z.m.n.U.m.m.C.M.wX<X#X`.].T Q ~ (  .XX&X5X9X9X9X9X9X9XXX.XQ G D C B ",
"9X9X5X;XoX) I P J _ t l h s p y 8 8 q d X.g.v.S.Z.S.Z.Z.j.h.h.p.p.p.p.d.M.zX<X%X}._.Y L C Z H ~  .,X9X9X9X9X9X9X5XOX . X) / ^ Q ",
"9X5X;XOX XE V b 1 r d h k k j a 8 $ $ r X.k.S.G.P.G.Z.j.g.y.0.6.6.6.3.s.a.*.<X&X#X].T V , - N G | XX5X9X9X9X5X5X5X,X&XOXXXXXXXXX",
"9X9X5XXX[ P v - @ 7 a s k x k g & o   r X.l.V.G.P.G.A.Z.f.r.7.p 5.1.1.4.a.*.<X<X5XoXQ D : + < D Q oXOX5X5X5X5X4X5X5X5X5X5X4X5X5X",
"9X5X5XXX[ P , O o & 9 a j k h g q & $ r l k.B.F.F.F.Z.j.h.y.0.7.6.1.>.l a.M.dXdXsX3X$.H < > c M R ) XXXXXX,X&X4X5X7X7X9X9X0X0XqX",
"9X;X&XoX) C v O o % 8 9 d g g a w q w g z d.c.b.m.m.Z.v.v.j.g.u.w.6.<.9.s.M.N.N.N.dX*.` M n n n m P E ) ) XXXX4X5X7X0X8X0XaXaXaX",
";X9X4XoX) R b = X # $ 7 q w u d w g g l z 9.q.d.z.n.n.m.D.m.b.l.i.8.7.9.s.B.C.H.nXcX:.&.) K K K n v b D W ) .X4X5X8XqXaXaXpXpXpX",
"9X&X;XXX| W B ; X . o $ $ * 0 u d h x k k 7.6.9.w.d.x.V.T.Y.D.b.h.y.t.t.i.Z.D.F.K.nXcXeX;X`.K K n > = , C E | &X5X0XqXaXpXhXhXhX",
"9X9X5XOX| W B ; +         o * q h x x i.8.6.,.,.2.w.x.U.T.^.W.D.l.y.t.y.h.Z.A.R.SX/.nXbXfXqX5X{ ! 4 @ ; B E | OX5XuXiXaXpXhXhXhX",
"0X0XqX1X .! Z ; +     X   o & u g k x 8.7.5.>.>.1.w.x.U.T.W.T.V.j.y.r.r.i.Z.U.R.Q.SXBXBXMXbXkX;.o.' 3 B C Q  .&X5X0XiXaXpXyXhXhX",
"aX0XiX3X%.J A ; X         $ $ y a k k 8.6.5.>.>.1.w.x.U.W.W.T.V.j.t.j s i.c.A.R.~.SXDXAXFXAXVXMX;.;.@.' Q [ oXOX5X9X8XuXiXiXiXyX",
"hXhXhXrX%.' A +           o & 9 i p 8.8.5.5.1.>.1.w.x.U.R.E.R.Z.h.k p p t.c.m.Y.!.DXHXHXKXIXFXZXVX;.=.} } +X@X5X5X5X6X7X8X8XiX8X",
"hXhXhXrX%.] 4 : +   X X X @ * w p s 7.0.8.6.1.2.3.w.x.U.T.R.P.Z.j.t.s j y.z.m.G.!.HXHXHXUXUXIXFXCXMXhX:X@X=X@X1X5X&X5X4X5X2X6X5X",
"jXhXhXyX=.] ' 4 @ X O = = : 3 d l z z y.0.4.4.2.4.d.n.V.G.J.P.Z.Z.h.u.g.j.v.V.Y.SXDXHXHXUXUXIXIXCXMXmX:X:X-X@X1X4X&X&X5XOX5X5X;X",
"hXhXyXrX=.%...' A Z N B B Z _ ..o.+.+.k.O.s.O.a.s.s.N.C.H.K.L.P.S.S.S.S.S.F.C.C.SXSXHXHXUXIXIXAXVXmXmX=X=X-X;X7X4X&X&X&X&X&X;XOX",
"aXaXiXtX2X%.%.#.@.] ] ] E ( @.#.=.;.;.-.*.*.*.*.*.M.M.cXC.L.NXI.(.(.DX(.(.L.L.L.L.L.CXFXFXFXZXVXMXkXuX=X=X$X%X5X5X4X&X&X&X&X&X4X",
"uX7X8X8XrXrXrX=.=.%.%.}  .XX,X2X=.;.sX;.;.sXwX*.<XeXwXwXdXMXMXCXFXFXKXGXFXCXMXL.mXmXMXMXVXVXVXMXkXpX-X#X#X*X&X5X5X4X5X4X4X5X4X4X",
"5X5X5X8X8XrXyXpXyXrX8X2X1X;X6X2XyXyXhXhXsXrX3X6XqX2X<XqXtXkXMXZXGXLXUXUXKXFXMXMXmXtXmXmXmXmXjXjXaXlX&X$X$X%X&X5X4X5X5X4X5X&X4X5X",
"&XOX;X5X8XaXpXjXhXpXiX8X5X;X2XuXtXhXhXyXtXuX;X@XOX%X}.=X:XhXMXCXFXLXLXLXKXCXMXpXiX+X+X:XuXtXtX2X8XuX6XqX6X5X5X4X5X&X4X5X4X5X5X5X",
"%X&X&X5X8XiXaXpXpXaXrX1XXX .XX2XtXaXaXaXuX7X@X[ |.[.].{.=XhXkXVX(.FXGXGXZXCXMXhX:X{.+X[ +X} XX&.sXwXdXwXgXqX6X;X%X%X%X;X;X5X5X5X",
"&X&X&X5X6X0XiXaXiXtX2X .~ ~ {  .2XuXaXuX2X@X[ I I Y ].+X=XuXhXMXL.(.L.L.L.MXmXaX-X{.].Y L L ! #.:.N.cXxXzXdX<X;X#X}.#X*X;X5X9X5X",
"&X4X4X5X7X6X0XqX8X>X} H Z B H { @X7XuX8X@X} G V V V T |.-XuXpXfX;.k.Z.-.-.:.yXuX-X#X_.L m N _ o.k.C.C.NXvXzXeX%X}.{.}.*X5X7X9X9X",
"4X4X4X5X5X9X7X7X1X .~ Z : = 2 H } 1X5X5X .{ N ; ; N ] |.;X7X1X$...' d f ..$.2X7X&X|.T m > * r X.l.F.T.BXNXcXgX9X#X}.#X%X&X5X5X9X",
"4X4X4X5X5X5X9X5XOX| Q B : + < D ( .XOXoX) W N ; - N ! ) XXXX'.^ H 4 * 1 D E '.OX,X.XE Z - 5 a y.n.A.R.^.NXnXxXeX6X&X&XOXOX&XOXOX",
"5X5X5X4X9X9X;X;X%X X) G Z b B D E ) ) ) ^ G Z b N Z W ~ ) ) T L n , > c n K U ) .X$.` _ f k t.h.A.Y.R./.^.nXvXzXdXeX<X$. . .[ / ",
"5X9X5X9X4X9X5X&X,XXX.X( Q W G G R R G G R W W Q W W W W W R P L L L M m L K K E ` @.o.s.k.g.b.m.F.E.~./.^.BXnXvXxXM.wX#.` W P C ",
"5X9X9X5X9X&X5X&X4X,XOX.XXX X( Q D B b B D W ( |  .( W D b b B C I / / '.T L m M S ..O.k.B.V.F.T.T.E.Q.Q.^.^.^.K.C.N.N.o._ < v > ",
"5X5X5X5X5X5X5X5X4X5X5X4X;XOX .Q D < O ; Z Q XXOXXXXXQ Z ; O < D ^  XXXoX/ L v - 3 g f.l.D.T.W.Q.Q.W.W.W././.Q.W.F.B.k.X.r @ . X ",
",X,XOX,X,XOX4X5X4X5X9X9X9X5XOX( F < + < D ( XX5X5X,X) D : ; b W  .1X9X;X'.P c @ 7 a y.b.F.W.Q.Q.T.G.G.G.T.Q.~.Q.T.V.k.X.t - = O ",
"{ | {  .XXXXOX5X5X;X9X9X9X9X,X| Q D Z D W | ,X5X5X,X| W D B F ( XX9X9X;X|.P v o % w t.j.S.G.G.Y.F.Z.m.V.Y.Y.~.~.W.D.l.-._ b c c ",
"F G G Q ( | XX,X5X9X9X9X9X5X4XXX| ( ~ ( | XX1X5X5X,XXX| ( Q ( XX&X9X9XOX| I c - $ 9 j g.v.Z.A.m.n.z.z.n.m.U.R.E.W.K.C.*.#.L K K ",
": < 2 B W {  .OX5X9X5X9X5X4X4X,XOXXXXXXX,XOX5X5X5X4X,XXXXXXXXX5X5X9X9X5X|.P v - % 8 a t.g.h.h.u.9.w.9.q.x.U.Y.T.^.K.C.dX>XY `.`.",
"    O 2 G { .XOX4X9X9X4X4X4X5X4X4X1X&X&X1X4X5X5X5X4X1X5X4X5X5X5X9X5X9XOX XI v = @ 7 u h t.t.t.9.6.,.2.w.e.n.Y.T.W.K.NXdX3X%X'.'.",
"  X + < D ( XXOX4X9X9X9X5X&X&X&X&XOXOXOXOX;X1X&X5X5X4X5XOXOX4X&X4X,XOX X/ C v = @ & 9 a s k 0.0.<.3.3.w.e.x.U.Y.J.K.vXzXgXqX6X6X",
"< N B D W { XXOX9X;X;X;X&X%X%X|.|.|.|.| oXOXOX5X5X4X,XXXXX| | .XXX X .^ E C > + $ & 9 i s 0.0.t.9.9.e.e.x.x.n.m.V.B.C.cXxXzXbXdX",
"W W W ~  .XX,X,X5X;X*X*X$X}.[._.T L L P T |.oX5X5X5XXX) E I ' I W W W R C b > + $ & 8 i h k t.i.j.z.n.m.x.x.x.z.d.B.B.C.nXvXnXvX",
" X .XXXXXX,X,X,X5X&X;X*X$X}.'.Y L m c v L [ oX5X5X@X| W C , , , b N N N , = O @ $ & y a s x y.h.b.F.F.F.V.x.d.w.d.d.n.C.nX/.BXBX",
",X,X;X,X&X5X,X1X5X4X;X9X-X%X|.^ M , + > C ^ OX;X1X,X[ G < X @ X + ; ; ; = O X . $ & u a s y.h.Z.D.G.T.G.V.z.q.3.4.w.z.V.Y.W.SXSX",
"9X5X9X5X5X5X&X5X4X9XqXaXqXeX<X*._ t 8 0 _ ! $.OXXX[ { H 4 1 @ @               o $ & q a s t.h.Z.S.G.^.G.V.z.w.1.1.3.e.m.V.Y.E.E.",
"9X9X9X5X9X%X;X;X9XqXgXdXzXzXzXM.-.X.l l O._ $.$.) ^ Q ] ' S A * 1             o $ & y p s r.i.Z.b.A.F.S.m.p.9.5.<.6.e.p.n.m.A.m.",
"5X5X9X5X9X*X*X;XqXgXbXxXcXvXnXC.B.v.j.f.f.O._ ! F I ] ] %.#...' 3 @ .         . $ & 9 i p 8.r.i.c.c.Z.Z.i.i.7.5.5.5.6.9.p.e.e.p.",
"5X5X5X5X-X*X#X;XqXgXxXnXNXK.J.W.J.D.S.v.k.X.f 3 < V ] %.=.=.=.@.' : X         . $ & y i p 8.8.i.i.i.i.r.i.8.8.7.5.5.5.<.1.2.1.3.",
"5X4X5X&X*X$X}.%X6XdXcXnXJ.W.E.Q.~.W.W.F.b.s.g % + V ] %.yXyXyX&.' A 1 X + + + @ % 0 u s k r.t.y.t.r.r.r.x r.k k r.0.7.6.3.2.2.2.",
"5X,X5X&X%X#X].|.2X;.:.H.G.Y.R.~.!.~.~.J.m.f.l 3 < V ] 2XtXhXpXrX%.' A 1 : ; , , 4 t ..z X.+.f.x +.t.z X.X.+.+.+.f.f.f.u.p.e.e.e.",
"5X5X5X&X|.|._.[ $.*.-.S.b.F.Y.R.!.~.~.W.B.M.O.S M L [ 1XaXpXpXrX=.] ' ' H D V D H @.#.o.-.-.-.-.-.o.o.o.o.o.-.-.-.k.B.A.A.A.U.U.",
"9X9X9X&XoXT Y I J ..+.f.h.Z.A.A.R.E.Q.W.C.N.*.W U U _.@XuXaXiXrX=.=.=.%.#.} { ~ Q $.&.;.;.;.;.;.&.*.&.&.&.&.=.;.zXL.L./.(.(.).).",
"0X9X9X&X XT L b 3 t f z t.i.Z.A.F.Y.W.J.C.cXwX,X'._.}.%X-X6XtXiXmXyXyX=.rX2XXX X1X%.3XrXhXfXhXsXyX3X>X2X3X2XrXyXfXMXZXDXHXPXPXPX",
"9X9X;XOX/ I v , 1 0 w a j t.h.b.A.Y.T.J.H.cXdX6X%X'.'.$X;X5X6XtX:XyXhXyXyXtX7X@X;X6XiXpXhXhXhXyXtX6X1X;X-X-X:XtXmXMXZXJXLXUXUXUX",
",XOXXX.XQ C , X # % 7 y i 0.u.c.m.G.W.I.BXNXzXdXqX9X9X,X,X;X1X6XtXtXhXyXyXtX8X5X5X7X8XrXyXrXtXuX7X5X;X*X=X+X+XtXhXMXCXFXIXUXUXUX",
"| | | Q I b > . o # 5 e e 7.u.z.A.Y.T.^.K.NXnXxXdXgXgXqX6X&X;X@X%.=.=.=.rX8X7X5X5X2X2X2X%.%.2X2X@X;X;X*X$X+X[ } =.xXL.ZXAXIXUXIX",
"W W H C V , + . # 5 5 e e 7.q.z.m.V.T.^.^.BXK.nXnXxXdXgXqXOX|. X} ] ] } } >X1X5X5X1XXX} ] ] ] } XX;X;X&X|.[ Y ' #.;.;.MXVXVXAXAX",
"N N < 2 , = O . # # 6 6 ,.6.q.z.m.F.W.W.W.W.^.Y.NXnXcXdXqX&X|.Y I H A S J  .OX1X5XXX| ! A A H !  .OX;X@X.X^ F Z S ..*.:.mXmXkXMX",
"+ + O O O O X . # 5 6 6 >.3.w.z.V.Y.W.^.Q.Q.Q.E.W.C.cXzXgX&X'.Y V , + : D Q XX5X4XXX~ Z ; @ < F { OX5X4X .W N ; ; 2 F '.@X@X9X9X",
"X X O X X     o # 5 5 6 >.2.w.z.m.m.W.Q.Q.~.E.E.Q.BXnXbXeX%X'.U m =   ; B Q .XOX5X.XQ B ;   ; C | XX4XOX| W <   . , M P '.#X'.#X",
"              o # 5 6 6 >.2.w.z.m.F.W.~.~.~.~.~.T.NXvXzXgX;X_.L v =   + b W XX;X&X XW B +   = C ^ XX5X,X .W <     = n `.`.`.`.`."
};
