/* XPM */
static char *_1f66a6fe8854adfbc53b19902b0b955vROvpOG9t2uHSAuM[] = {
/* columns rows colors chars-per-pixel */
"32 32 222 2 ",
"   c #010001",
".  c #02030B",
"X  c #170701",
"o  c #010213",
"O  c #05081C",
"+  c #13171C",
"@  c #380701",
"#  c #2B1500",
"$  c #291800",
"%  c #2C110B",
"&  c #311F02",
"*  c #2E2100",
"=  c #3A2805",
"-  c #382818",
";  c #050726",
":  c #0E142D",
">  c #141A2D",
",  c #000232",
"<  c #000736",
"1  c #061636",
"2  c #141B34",
"3  c #141C3A",
"4  c #1B212D",
"5  c #18233E",
"6  c #302D3A",
"7  c #6B0401",
"8  c #442D01",
"9  c #522903",
"0  c #573B00",
"q  c #4A3319",
"w  c #50393B",
"e  c #5A440B",
"r  c #594218",
"t  c #644709",
"y  c #79480A",
"u  c #745513",
"i  c #5D4830",
"p  c #654A27",
"a  c #6D5326",
"s  c #785A28",
"d  c #6C5C3A",
"f  c #00014A",
"g  c #061846",
"h  c #101F40",
"j  c #00045A",
"k  c #031B5A",
"l  c #162448",
"z  c #1B244A",
"x  c #182756",
"c  c #2D3748",
"v  c #37394A",
"b  c #222D55",
"n  c #222C5B",
"m  c #27315B",
"M  c #323358",
"N  c #001768",
"B  c #032868",
"V  c #152D68",
"C  c #113075",
"Z  c #1C3776",
"A  c #2A3563",
"S  c #2D3865",
"D  c #243668",
"F  c #2D3A6B",
"G  c #323A67",
"H  c #293C76",
"J  c #313D71",
"K  c #313F78",
"L  c #463C50",
"P  c #423F65",
"I  c #0C4178",
"U  c #38476C",
"Y  c #2A4479",
"T  c #374477",
"R  c #34427A",
"E  c #3D5378",
"W  c #414D5F",
"Q  c #6C564B",
"!  c #745B42",
"~  c #685A55",
"^  c #785D54",
"/  c #796556",
"(  c #45516C",
")  c #464B77",
"_  c #485676",
"`  c #59577B",
"'  c #655C69",
"]  c #734A72",
"[  c #53617B",
"{  c #656777",
"}  c #73667A",
"|  c #8D1400",
" . c #8E2702",
".. c #8C3802",
"X. c #8B2918",
"o. c #973B1B",
"O. c #853434",
"+. c #8C4906",
"@. c #8D471C",
"#. c #835615",
"$. c #A04413",
"%. c #876019",
"&. c #9B472A",
"*. c #895926",
"=. c #84523E",
"-. c #A25920",
";. c #A5593C",
":. c #8A652A",
">. c #836131",
",. c #89663A",
"<. c #976538",
"1. c #97713C",
"2. c #944946",
"3. c #896647",
"4. c #936E43",
"5. c #9A744B",
"6. c #8A6B57",
"7. c #966854",
"8. c #9C7358",
"9. c #A96A49",
"0. c #A17748",
"q. c #B2704B",
"w. c #A77D59",
"e. c #AA7D59",
"r. c #B17455",
"t. c #B87959",
"y. c #804D6E",
"u. c #91716B",
"i. c #987578",
"p. c #A67667",
"a. c #B87F61",
"s. c #AA8159",
"d. c #BB845D",
"f. c #B7885A",
"g. c #AF8467",
"h. c #B28663",
"j. c #B88866",
"k. c #BA8D69",
"l. c #BF916F",
"z. c #AB847C",
"x. c #B88B78",
"c. c #BC937C",
"v. c #C38B5B",
"b. c #C18C69",
"n. c #C4926B",
"m. c #CC976C",
"M. c #C49372",
"N. c #C99773",
"B. c #CC9974",
"V. c #C7967A",
"C. c #D09C74",
"Z. c #023788",
"A. c #00338C",
"S. c #273E82",
"D. c #004689",
"F. c #044396",
"G. c #144E93",
"H. c #284586",
"J. c #364683",
"K. c #394784",
"L. c #374885",
"P. c #3B4983",
"I. c #354B8A",
"U. c #3D4D8C",
"Y. c #35508B",
"T. c #244B95",
"R. c #284C97",
"E. c #334D94",
"W. c #3C4E92",
"Q. c #334F98",
"!. c #345494",
"~. c #3D5194",
"^. c #3A5E93",
"/. c #414F8E",
"(. c #41518D",
"). c #485888",
"_. c #555A88",
"`. c #454D91",
"'. c #425294",
"]. c #4B5693",
"[. c #4B5B94",
"{. c #455599",
"}. c #475999",
"|. c #545A91",
" X c #665C8B",
".X c #4D6182",
"XX c #5A6788",
"oX c #4C6492",
"OX c #546393",
"+X c #586697",
"@X c #556B93",
"#X c #5C6C92",
"$X c #796889",
"%X c #656394",
"&X c #776A91",
"*X c #627293",
"=X c #687598",
"-X c #717590",
";X c #836D88",
":X c #897289",
">X c #957986",
",X c #A07F84",
"<X c #8A838B",
"1X c #988988",
"2X c #868694",
"3X c #9C9494",
"4X c #AB8683",
"5X c #AF9B8C",
"6X c #A89A9A",
"7X c #BEA68A",
"8X c #BCAB9E",
"9X c #C59C80",
"0X c #CEB189",
"qX c #CBB69D",
"wX c #E1BA8A",
"eX c #E4BE93",
"rX c #C7B2A3",
"tX c #E6C395",
"yX c #D7C1A2",
"uX c #EBCCA2",
"iX c #EFD0A0",
"pX c #F6D5A4",
/* pixels */
"  . m P.{.}.{.H.f $ d k.V.C.M.i.$XG.A.Q.'.'.'.'.{./.S o O F }.}.",
"O 2 S U.{.'.U.K g = ,.h.N.B.M.z.;X].~.}.W.W.(.'.'.'.J 3 3 G U.~.",
"S F P.'.~.H.V M i p s 4.e.b.M.V.4X>X$X|.E.W.{.{.'.W.P.J S S m A ",
"W.W.'.}.U.V , 8 a ,.>.s 4.e.M.N.B.c.i.%XT.E.'.`.'.'.'.'.L.M ;   ",
"{.'.W.I.T v 9 0 t d ,.4.5.w.t.j.v.d.i._.Z.H.K K.U.{.{.{.~.J z 3 ",
"{.W.K x 6 p s u = - 3.h.k.w.4.:.-.;.y.`.F.B 3 m P.{.{.{.W.P.J.R ",
"{.W.D , & t s a * % 3.j.k.w.,.#...X.]  X_.M ; h J U.'.W.'.].{.}.",
"'.U.F < X 8 r i r i 2.9.r.e.w.5.@.@.7.i.>X` N j k m J U.}.[.+X@X",
"'.W.J 3     X q d >.#...&.t.n.j.4.:.0.b.4X:X~.C g . x U.}.+X#X*X",
"+X[.U 3   .   = s %.@.| o.t.m.k.4.s 0.b.C.7X6X<X' c D U.}.OX#X#X",
"=X#X( >       8 y #.+. .$.t.N.j.,.y <.d.9XeXuXqX1X.X!.(.'.'.[.[.",
"*X*X_ v > 1 2 L ! 3.=.O.2.p.x.g.s.5.w.x.9XeXiXyX3X@X!.^.U.W.W.U.",
"OXOX_._ _ E K ) { { } ] ] $X>X5X0XwX7X1X1X6X8X6X=X!.T.~.'.W.W.'.",
"W.'.OX*X*XoX'.].*X*X@X'.~.!.@X6XyXpXqX2XoX@X*X#XOX~.W.'.'.'.'./.",
"E.W.[.+XXX).R E oX@X).Y I D.^.2X7X0X5X-XG.D.C E $X;X&X'.R.E.'.'.",
"'.'.].}.(.M : m (.[.J.l 5 Y }.XX~ d ' @X!.B < i p.x.>X|.A.T.'.{.",
"'.'.'.W.L.m : z K J.F 2 3 G I.Z f ; j H.`.M q *.f.V.4X;X|.`.P.J.",
"{.{.'.'.W.K.R A b x A J J A x x V Z B N L ^ w.a.n.N.V.z.i.' M g ",
"'./.'.'.'.'.'.R z   A /./.A   z P.~.H , q 5.b.N.M.M.M.N.a.3.-   ",
"F F J./.'.{.}.U.F m K '.`.K m F ~.{.D , 8 ,.h.j.e.r.b.m.x.u.M j ",
". > S U.{.'.'.W./.U.W.'.(.(.U.'.{.'.H < & a ,.<.o.o.q.m.c.:XL.A.",
"; 5 S U.'.'.W.W.I.U.U.'.~.U.U.U.U.K.D , $ e s *.@.&.9.d.g.>X&X%X",
"J K K./.W.Q.T.Z.B k Z W.{.R x z b b h O & e s 5.r.a.r.;.7.p.4X4X",
"{.'.'.'.'.{.`.) 6 $ M U.U.S +     .     * r s 0.k.M.r.o.o.q.l.V.",
"{.'.~.Q.|.&X>Xi.6.3.Q P Z G W v +   .   * t #.1.s.s.5.+.+.-.9.q.",
"/.'.R.T.%X>Xx.M.M.j.3.q 1 ( XX[ c       * t #.:.:.:.:.#.#... .| ",
"'.'.H.S.` i.k.m.C.N.8.w k E +X@X( c 5 h v Q / / ^ Q / / 6.5.q.q.",
"{.'.H.B L d 4.f.n.V.i.) Z.H.[.OXXX[ ).R ) _.-X{ _.` ` XX>X7XwXtX",
"~.U.D , # 0 s 4.d.M.,X&XW.E.~.[.#X*XOX'.'.OX*X#X[.~.!.^.2X8XiXpX",
"J F l o @ 9 +.;.j.M.x.,X;X%X'.Y._ _ ).[.(.).E E Y.!.H.Y { 1X8XrX",
": : ; . @ 7  .;.h.M.N.M.z.:X].C l 4 S U.U.S 4 b P.'.T 3 6 ) #X=X",
"        @ 7  .;.d.M.B.m.c.>X].Z.<   b U.U.n   3 R ~.J O o N A.A."
};
